<mxfile host="drawio-plugin" modified="2023-01-26T05:41:57.640Z" agent="5.0 (Macintosh; Intel Mac OS X 10_15_7) AppleWebKit/537.36 (KHTML, like Gecko) Chrome/104.0.5112.102 Safari/537.36" etag="ssZASLzoADGsZZtTlc7c" version="20.5.3" type="embed" pages="8"><diagram id="23iRSUPoRavnBvh4doch" name="Page-1"><mxGraphModel dx="891" dy="749" grid="1" gridSize="10" guides="1" tooltips="1" connect="1" arrows="1" fold="1" page="1" pageScale="1" pageWidth="827" pageHeight="1169" math="0" shadow="0"><root><mxCell id="0"/><mxCell id="1" parent="0"/><mxCell id="2" value="" style="rounded=0;whiteSpace=wrap;html=1;" parent="1" vertex="1"><mxGeometry x="240" y="70" width="530" height="370" as="geometry"/></mxCell><mxCell id="3" value="로그인 페이지" style="text;html=1;strokeColor=none;fillColor=none;align=center;verticalAlign=middle;whiteSpace=wrap;rounded=0;" parent="1" vertex="1"><mxGeometry x="450" y="90" width="90" height="30" as="geometry"/></mxCell><mxCell id="4" value="" style="rounded=0;whiteSpace=wrap;html=1;" parent="1" vertex="1"><mxGeometry x="360" y="170" width="280" height="150" as="geometry"/></mxCell><mxCell id="5" value="id" style="rounded=0;whiteSpace=wrap;html=1;" parent="1" vertex="1"><mxGeometry x="390" y="190" width="220" height="30" as="geometry"/></mxCell><mxCell id="6" value="pw" style="rounded=0;whiteSpace=wrap;html=1;" parent="1" vertex="1"><mxGeometry x="390" y="230" width="220" height="30" as="geometry"/></mxCell><mxCell id="7" value="로그인" style="shape=tape;whiteSpace=wrap;html=1;" parent="1" vertex="1"><mxGeometry x="390" y="270" width="220" height="50" as="geometry"/></mxCell><mxCell id="8" value="회원가입" style="shape=tape;whiteSpace=wrap;html=1;" parent="1" vertex="1"><mxGeometry x="465" y="320" width="80" height="50" as="geometry"/></mxCell><mxCell id="9" value="LoginUserDto :&amp;nbsp;&lt;br&gt;input text id&lt;br&gt;input password pw" style="whiteSpace=wrap;html=1;" parent="1" vertex="1"><mxGeometry x="294" y="470" width="226" height="60" as="geometry"/></mxCell><mxCell id="10" value="" style="rounded=0;whiteSpace=wrap;html=1;" parent="1" vertex="1"><mxGeometry x="240" y="680" width="520" height="380" as="geometry"/></mxCell><mxCell id="11" value="회원가입 페이지" style="text;html=1;strokeColor=none;fillColor=none;align=center;verticalAlign=middle;whiteSpace=wrap;rounded=0;" parent="1" vertex="1"><mxGeometry x="475" y="700" width="95" height="30" as="geometry"/></mxCell><mxCell id="12" value="RegisterUserDto&lt;br&gt;&lt;br&gt;input text username&lt;br&gt;input password pw&lt;br&gt;input text name&lt;br&gt;input text email&lt;br&gt;&amp;nbsp;" style="rounded=0;whiteSpace=wrap;html=1;" parent="1" vertex="1"><mxGeometry x="355" y="750" width="315" height="150" as="geometry"/></mxCell><mxCell id="13" value="가입하기" style="shape=tape;whiteSpace=wrap;html=1;" parent="1" vertex="1"><mxGeometry x="354" y="900" width="306" height="70" as="geometry"/></mxCell><mxCell id="14" value="* query : &lt;br&gt;select -&amp;gt; username, email 중복확인&lt;br&gt;insert -&amp;gt; registerUser" style="text;html=1;strokeColor=none;fillColor=none;align=center;verticalAlign=middle;whiteSpace=wrap;rounded=0;" parent="1" vertex="1"><mxGeometry x="354" y="970" width="256" height="30" as="geometry"/></mxCell><mxCell id="15" value="" style="rounded=0;whiteSpace=wrap;html=1;" parent="1" vertex="1"><mxGeometry x="950" y="70" width="550" height="360" as="geometry"/></mxCell><mxCell id="16" value="세션에 로그인 정보 저장" style="whiteSpace=wrap;html=1;" parent="1" vertex="1"><mxGeometry x="580" y="470" width="120" height="60" as="geometry"/></mxCell><mxCell id="17" value="user.awarerole == false 일때 메인페이지" style="text;html=1;strokeColor=none;fillColor=none;align=center;verticalAlign=middle;whiteSpace=wrap;rounded=0;" parent="1" vertex="1"><mxGeometry x="1050" y="40" width="320" height="30" as="geometry"/></mxCell><mxCell id="18" value="n회차&amp;nbsp; 마니또 매치에서 나의 역할은?" style="rounded=0;whiteSpace=wrap;html=1;" parent="1" vertex="1"><mxGeometry x="1010" y="130" width="410" height="230" as="geometry"/></mxCell><mxCell id="19" value="확인하기&lt;br&gt;update user.awarerole == true" style="shape=tape;whiteSpace=wrap;html=1;" parent="1" vertex="1"><mxGeometry x="1112.5" y="260" width="225" height="100" as="geometry"/></mxCell><mxCell id="20" value="user.awarerole == true 일때 메인페이지" style="text;html=1;strokeColor=none;fillColor=none;align=center;verticalAlign=middle;whiteSpace=wrap;rounded=0;" parent="1" vertex="1"><mxGeometry x="1070" y="470" width="320" height="30" as="geometry"/></mxCell><mxCell id="21" value="" style="rounded=0;whiteSpace=wrap;html=1;" parent="1" vertex="1"><mxGeometry x="935" y="510" width="550" height="360" as="geometry"/></mxCell><mxCell id="22" value="receiver, donator 아무것도 아님&lt;br&gt;&lt;br&gt;당신의 역할은 OOO입니다." style="text;html=1;strokeColor=none;fillColor=none;align=center;verticalAlign=middle;whiteSpace=wrap;rounded=0;" parent="1" vertex="1"><mxGeometry x="1040" y="530" width="290" height="30" as="geometry"/></mxCell><mxCell id="23" value="" style="rounded=0;whiteSpace=wrap;html=1;" parent="1" vertex="1"><mxGeometry x="1000" y="600" width="430" height="210" as="geometry"/></mxCell><mxCell id="24" value="match1&amp;nbsp;" style="rounded=1;whiteSpace=wrap;html=1;" parent="1" vertex="1"><mxGeometry x="1020" y="630" width="360" height="60" as="geometry"/></mxCell><mxCell id="25" value="match2" style="rounded=1;whiteSpace=wrap;html=1;" parent="1" vertex="1"><mxGeometry x="1020" y="720" width="360" height="60" as="geometry"/></mxCell><mxCell id="26" value="" style="rounded=0;whiteSpace=wrap;html=1;" parent="1" vertex="1"><mxGeometry x="935" y="1020" width="550" height="360" as="geometry"/></mxCell><mxCell id="27" value="match 페이지에 들어갔을 때&lt;br&gt;session user 정보&lt;br&gt;match 정보" style="text;html=1;strokeColor=none;fillColor=none;align=center;verticalAlign=middle;whiteSpace=wrap;rounded=0;" parent="1" vertex="1"><mxGeometry x="930" y="970" width="330" height="30" as="geometry"/></mxCell><mxCell id="28" value="comment창" style="rounded=0;whiteSpace=wrap;html=1;" parent="1" vertex="1"><mxGeometry x="1010" y="1180" width="430" height="140" as="geometry"/></mxCell><mxCell id="29" value="벌칙(admin이 임의로 지정 혹은 여건이 되면 투표시스템)" style="rounded=0;whiteSpace=wrap;html=1;" parent="1" vertex="1"><mxGeometry x="1010" y="1090" width="120" height="60" as="geometry"/></mxCell><mxCell id="30" value="미션ㄱ" style="rounded=0;whiteSpace=wrap;html=1;" parent="1" vertex="1"><mxGeometry x="1150" y="1090" width="120" height="60" as="geometry"/></mxCell><mxCell id="31" value="남은시간" style="rounded=0;whiteSpace=wrap;html=1;" parent="1" vertex="1"><mxGeometry x="1010" y="1040" width="120" height="40" as="geometry"/></mxCell><mxCell id="0B3dXu99Qhf_Onf5iQ7D-37" value="&lt;font style=&quot;font-size: 16px;&quot;&gt;로그인 페이지&lt;/font&gt;" style="text;html=1;align=center;verticalAlign=middle;resizable=0;points=[];autosize=1;strokeColor=none;fillColor=none;" parent="1" vertex="1"><mxGeometry x="40" y="135" width="120" height="30" as="geometry"/></mxCell><mxCell id="1VvXd-A3SchGMK6I-eU_-31" value="Text" style="text;html=1;align=center;verticalAlign=middle;resizable=0;points=[];autosize=1;strokeColor=none;fillColor=none;" parent="1" vertex="1"><mxGeometry x="280" y="1450" width="50" height="30" as="geometry"/></mxCell></root></mxGraphModel></diagram><diagram id="4mNTQO7juNZClHotM8ff" name="프레임"><mxGraphModel dx="2325" dy="1048" grid="1" gridSize="10" guides="1" tooltips="1" connect="1" arrows="1" fold="1" page="1" pageScale="1" pageWidth="827" pageHeight="1169" math="0" shadow="0"><root><mxCell id="0"/><mxCell id="1" parent="0"/><mxCell id="AnjMaQsSXVpKqBYSPPNh-2" value="페이지 프레임" style="text;html=1;align=center;verticalAlign=middle;resizable=0;points=[];autosize=1;strokeColor=none;fillColor=none;fontSize=16;" parent="1" vertex="1"><mxGeometry x="350" y="30" width="120" height="30" as="geometry"/></mxCell><mxCell id="AnjMaQsSXVpKqBYSPPNh-3" value="" style="rounded=0;whiteSpace=wrap;html=1;fontSize=16;" parent="1" vertex="1"><mxGeometry x="-120" y="130" width="1080" height="780" as="geometry"/></mxCell><mxCell id="AnjMaQsSXVpKqBYSPPNh-7" style="edgeStyle=orthogonalEdgeStyle;rounded=0;orthogonalLoop=1;jettySize=auto;html=1;exitX=1;exitY=0.5;exitDx=0;exitDy=0;fontSize=16;" parent="1" source="AnjMaQsSXVpKqBYSPPNh-4" edge="1"><mxGeometry relative="1" as="geometry"><mxPoint x="1140" y="195" as="targetPoint"/></mxGeometry></mxCell><mxCell id="AnjMaQsSXVpKqBYSPPNh-4" value="header" style="rounded=1;whiteSpace=wrap;html=1;fontSize=16;" parent="1" vertex="1"><mxGeometry x="-110" y="150" width="1050" height="90" as="geometry"/></mxCell><mxCell id="AnjMaQsSXVpKqBYSPPNh-9" style="edgeStyle=orthogonalEdgeStyle;rounded=0;orthogonalLoop=1;jettySize=auto;html=1;exitX=1;exitY=0.5;exitDx=0;exitDy=0;fontSize=16;" parent="1" source="AnjMaQsSXVpKqBYSPPNh-5" edge="1"><mxGeometry relative="1" as="geometry"><mxPoint x="1160" y="830" as="targetPoint"/></mxGeometry></mxCell><mxCell id="AnjMaQsSXVpKqBYSPPNh-5" value="footer" style="rounded=1;whiteSpace=wrap;html=1;fontSize=16;" parent="1" vertex="1"><mxGeometry x="-110" y="760" width="1050" height="140" as="geometry"/></mxCell><mxCell id="AnjMaQsSXVpKqBYSPPNh-8" value="&lt;ul&gt;&lt;li&gt;로고 및 서비스명&lt;/li&gt;&lt;li&gt;홈으로 이동 링크&lt;/li&gt;&lt;/ul&gt;&lt;p&gt;&lt;/p&gt;" style="text;html=1;strokeColor=none;fillColor=none;spacing=5;spacingTop=-20;whiteSpace=wrap;overflow=hidden;rounded=0;fontSize=16;" parent="1" vertex="1"><mxGeometry x="1200" y="170" width="190" height="60" as="geometry"/></mxCell><mxCell id="AnjMaQsSXVpKqBYSPPNh-12" value="&lt;ul&gt;&lt;li&gt;프로젝트 정보&lt;/li&gt;&lt;/ul&gt;&lt;p&gt;&lt;/p&gt;" style="text;html=1;strokeColor=none;fillColor=none;spacing=5;spacingTop=-20;whiteSpace=wrap;overflow=hidden;rounded=0;fontSize=16;" parent="1" vertex="1"><mxGeometry x="1180" y="810" width="190" height="60" as="geometry"/></mxCell><mxCell id="reh_7Vf4XwmfjQZg1P0A-9" value="body" style="rounded=1;whiteSpace=wrap;html=1;fontSize=16;" parent="1" vertex="1"><mxGeometry x="-110" y="250" width="1040" height="500" as="geometry"/></mxCell><mxCell id="kGAB_yHmhg3LmENd16qx-1" style="edgeStyle=orthogonalEdgeStyle;rounded=0;orthogonalLoop=1;jettySize=auto;html=1;fontSize=16;" parent="1" source="kGAB_yHmhg3LmENd16qx-2" edge="1"><mxGeometry relative="1" as="geometry"><mxPoint x="-610" y="310" as="targetPoint"/></mxGeometry></mxCell><mxCell id="kGAB_yHmhg3LmENd16qx-2" value="" style="shape=document;whiteSpace=wrap;html=1;boundedLbl=1;fontSize=16;" parent="1" vertex="1"><mxGeometry x="-780" y="270" width="120" height="80" as="geometry"/></mxCell><mxCell id="kGAB_yHmhg3LmENd16qx-3" value="input" style="text;html=1;align=center;verticalAlign=middle;resizable=0;points=[];autosize=1;strokeColor=none;fillColor=none;fontSize=16;" parent="1" vertex="1"><mxGeometry x="-590" y="295" width="60" height="30" as="geometry"/></mxCell><mxCell id="kGAB_yHmhg3LmENd16qx-4" style="edgeStyle=orthogonalEdgeStyle;rounded=0;orthogonalLoop=1;jettySize=auto;html=1;exitX=1;exitY=0.5;exitDx=0;exitDy=0;fontSize=16;" parent="1" source="kGAB_yHmhg3LmENd16qx-5" edge="1"><mxGeometry relative="1" as="geometry"><mxPoint x="-610" y="420" as="targetPoint"/></mxGeometry></mxCell><mxCell id="kGAB_yHmhg3LmENd16qx-5" value="" style="shape=hexagon;perimeter=hexagonPerimeter2;whiteSpace=wrap;html=1;fixedSize=1;fontSize=16;" parent="1" vertex="1"><mxGeometry x="-790" y="380" width="130" height="80" as="geometry"/></mxCell><mxCell id="kGAB_yHmhg3LmENd16qx-6" value="button" style="text;html=1;align=center;verticalAlign=middle;resizable=0;points=[];autosize=1;strokeColor=none;fillColor=none;fontSize=16;" parent="1" vertex="1"><mxGeometry x="-595" y="405" width="70" height="30" as="geometry"/></mxCell></root></mxGraphModel></diagram><diagram id="QRSBZpA_Lct_EclklToH" name="로그인"><mxGraphModel dx="1576" dy="524" grid="1" gridSize="10" guides="1" tooltips="1" connect="1" arrows="1" fold="1" page="1" pageScale="1" pageWidth="827" pageHeight="1169" math="0" shadow="0"><root><mxCell id="0"/><mxCell id="1" parent="0"/><mxCell id="-F4wy3UN16RSqaIKvrzK-1" value="로그인 페이지" style="text;html=1;align=center;verticalAlign=middle;resizable=0;points=[];autosize=1;strokeColor=none;fillColor=none;fontSize=16;" parent="1" vertex="1"><mxGeometry x="350" y="30" width="120" height="30" as="geometry"/></mxCell><mxCell id="-F4wy3UN16RSqaIKvrzK-2" value="" style="rounded=0;whiteSpace=wrap;html=1;fontSize=16;" parent="1" vertex="1"><mxGeometry x="-120" y="130" width="1080" height="780" as="geometry"/></mxCell><mxCell id="-F4wy3UN16RSqaIKvrzK-4" value="header" style="rounded=1;whiteSpace=wrap;html=1;fontSize=16;" parent="1" vertex="1"><mxGeometry x="-110" y="150" width="1050" height="90" as="geometry"/></mxCell><mxCell id="-F4wy3UN16RSqaIKvrzK-6" value="footer" style="rounded=1;whiteSpace=wrap;html=1;fontSize=16;" parent="1" vertex="1"><mxGeometry x="-110" y="760" width="1050" height="140" as="geometry"/></mxCell><mxCell id="x5-NEqW7qYrtf67aH3S_-1" value="" style="rounded=1;whiteSpace=wrap;html=1;fontSize=16;" parent="1" vertex="1"><mxGeometry x="-110" y="250" width="1040" height="500" as="geometry"/></mxCell><mxCell id="x5-NEqW7qYrtf67aH3S_-2" value="" style="rounded=0;whiteSpace=wrap;html=1;fontSize=16;" parent="1" vertex="1"><mxGeometry x="140" y="260" width="560" height="480" as="geometry"/></mxCell><mxCell id="x5-NEqW7qYrtf67aH3S_-4" value="username" style="shape=document;whiteSpace=wrap;html=1;boundedLbl=1;fontSize=16;size=0.25;" parent="1" vertex="1"><mxGeometry x="190" y="290" width="460" height="80" as="geometry"/></mxCell><mxCell id="x5-NEqW7qYrtf67aH3S_-7" style="edgeStyle=orthogonalEdgeStyle;rounded=0;orthogonalLoop=1;jettySize=auto;html=1;fontSize=16;" parent="1" source="x5-NEqW7qYrtf67aH3S_-6" edge="1"><mxGeometry relative="1" as="geometry"><mxPoint x="-610" y="310" as="targetPoint"/></mxGeometry></mxCell><mxCell id="x5-NEqW7qYrtf67aH3S_-6" value="" style="shape=document;whiteSpace=wrap;html=1;boundedLbl=1;fontSize=16;" parent="1" vertex="1"><mxGeometry x="-780" y="270" width="120" height="80" as="geometry"/></mxCell><mxCell id="x5-NEqW7qYrtf67aH3S_-8" value="input" style="text;html=1;align=center;verticalAlign=middle;resizable=0;points=[];autosize=1;strokeColor=none;fillColor=none;fontSize=16;" parent="1" vertex="1"><mxGeometry x="-590" y="295" width="60" height="30" as="geometry"/></mxCell><mxCell id="x5-NEqW7qYrtf67aH3S_-10" style="edgeStyle=orthogonalEdgeStyle;rounded=0;orthogonalLoop=1;jettySize=auto;html=1;exitX=1;exitY=0.5;exitDx=0;exitDy=0;fontSize=16;" parent="1" source="x5-NEqW7qYrtf67aH3S_-9" edge="1"><mxGeometry relative="1" as="geometry"><mxPoint x="-610" y="420" as="targetPoint"/></mxGeometry></mxCell><mxCell id="x5-NEqW7qYrtf67aH3S_-9" value="" style="shape=hexagon;perimeter=hexagonPerimeter2;whiteSpace=wrap;html=1;fixedSize=1;fontSize=16;" parent="1" vertex="1"><mxGeometry x="-790" y="380" width="130" height="80" as="geometry"/></mxCell><mxCell id="x5-NEqW7qYrtf67aH3S_-11" value="button" style="text;html=1;align=center;verticalAlign=middle;resizable=0;points=[];autosize=1;strokeColor=none;fillColor=none;fontSize=16;" parent="1" vertex="1"><mxGeometry x="-595" y="405" width="70" height="30" as="geometry"/></mxCell><mxCell id="U0UGJf5Y4poM5ICWiE9I-1" value="password" style="shape=document;whiteSpace=wrap;html=1;boundedLbl=1;fontSize=16;size=0.25;" parent="1" vertex="1"><mxGeometry x="190" y="400" width="460" height="80" as="geometry"/></mxCell><mxCell id="U0UGJf5Y4poM5ICWiE9I-2" value="로그인" style="shape=hexagon;perimeter=hexagonPerimeter2;whiteSpace=wrap;html=1;fixedSize=1;fontSize=16;" parent="1" vertex="1"><mxGeometry x="190" y="585" width="460" height="45" as="geometry"/></mxCell><mxCell id="U0UGJf5Y4poM5ICWiE9I-3" value="회원가입" style="shape=hexagon;perimeter=hexagonPerimeter2;whiteSpace=wrap;html=1;fixedSize=1;fontSize=16;" parent="1" vertex="1"><mxGeometry x="190" y="640" width="460" height="50" as="geometry"/></mxCell><mxCell id="Wxz_BfyEDIiqr-9rNyxY-53" value="Login Form(UserLoginDto)" style="shape=table;startSize=30;container=1;collapsible=0;childLayout=tableLayout;fontSize=16;" parent="1" vertex="1"><mxGeometry x="1060" y="140" width="545" height="170" as="geometry"/></mxCell><mxCell id="Wxz_BfyEDIiqr-9rNyxY-54" value="" style="shape=tableRow;horizontal=0;startSize=0;swimlaneHead=0;swimlaneBody=0;strokeColor=inherit;top=0;left=0;bottom=0;right=0;collapsible=0;dropTarget=0;fillColor=none;points=[[0,0.5],[1,0.5]];portConstraint=eastwest;fontSize=16;" parent="Wxz_BfyEDIiqr-9rNyxY-53" vertex="1"><mxGeometry y="30" width="545" height="47" as="geometry"/></mxCell><mxCell id="Wxz_BfyEDIiqr-9rNyxY-55" value="property" style="shape=partialRectangle;html=1;whiteSpace=wrap;connectable=0;strokeColor=inherit;overflow=hidden;fillColor=none;top=0;left=0;bottom=0;right=0;pointerEvents=1;fontSize=16;" parent="Wxz_BfyEDIiqr-9rNyxY-54" vertex="1"><mxGeometry width="136" height="47" as="geometry"><mxRectangle width="136" height="47" as="alternateBounds"/></mxGeometry></mxCell><mxCell id="Wxz_BfyEDIiqr-9rNyxY-56" value="type" style="shape=partialRectangle;html=1;whiteSpace=wrap;connectable=0;strokeColor=inherit;overflow=hidden;fillColor=none;top=0;left=0;bottom=0;right=0;pointerEvents=1;fontSize=16;" parent="Wxz_BfyEDIiqr-9rNyxY-54" vertex="1"><mxGeometry x="136" width="137" height="47" as="geometry"><mxRectangle width="137" height="47" as="alternateBounds"/></mxGeometry></mxCell><mxCell id="Wxz_BfyEDIiqr-9rNyxY-57" value="id" style="shape=partialRectangle;html=1;whiteSpace=wrap;connectable=0;strokeColor=inherit;overflow=hidden;fillColor=none;top=0;left=0;bottom=0;right=0;pointerEvents=1;fontSize=16;" parent="Wxz_BfyEDIiqr-9rNyxY-54" vertex="1"><mxGeometry x="273" width="136" height="47" as="geometry"><mxRectangle width="136" height="47" as="alternateBounds"/></mxGeometry></mxCell><mxCell id="Wxz_BfyEDIiqr-9rNyxY-70" value="name" style="shape=partialRectangle;html=1;whiteSpace=wrap;connectable=0;strokeColor=inherit;overflow=hidden;fillColor=none;top=0;left=0;bottom=0;right=0;pointerEvents=1;fontSize=16;" parent="Wxz_BfyEDIiqr-9rNyxY-54" vertex="1"><mxGeometry x="409" width="136" height="47" as="geometry"><mxRectangle width="136" height="47" as="alternateBounds"/></mxGeometry></mxCell><mxCell id="Wxz_BfyEDIiqr-9rNyxY-58" value="" style="shape=tableRow;horizontal=0;startSize=0;swimlaneHead=0;swimlaneBody=0;strokeColor=inherit;top=0;left=0;bottom=0;right=0;collapsible=0;dropTarget=0;fillColor=none;points=[[0,0.5],[1,0.5]];portConstraint=eastwest;fontSize=16;" parent="Wxz_BfyEDIiqr-9rNyxY-53" vertex="1"><mxGeometry y="77" width="545" height="46" as="geometry"/></mxCell><mxCell id="Wxz_BfyEDIiqr-9rNyxY-59" value="String username" style="shape=partialRectangle;html=1;whiteSpace=wrap;connectable=0;strokeColor=inherit;overflow=hidden;fillColor=none;top=0;left=0;bottom=0;right=0;pointerEvents=1;fontSize=16;" parent="Wxz_BfyEDIiqr-9rNyxY-58" vertex="1"><mxGeometry width="136" height="46" as="geometry"><mxRectangle width="136" height="46" as="alternateBounds"/></mxGeometry></mxCell><mxCell id="Wxz_BfyEDIiqr-9rNyxY-60" value="text" style="shape=partialRectangle;html=1;whiteSpace=wrap;connectable=0;strokeColor=inherit;overflow=hidden;fillColor=none;top=0;left=0;bottom=0;right=0;pointerEvents=1;fontSize=16;" parent="Wxz_BfyEDIiqr-9rNyxY-58" vertex="1"><mxGeometry x="136" width="137" height="46" as="geometry"><mxRectangle width="137" height="46" as="alternateBounds"/></mxGeometry></mxCell><mxCell id="Wxz_BfyEDIiqr-9rNyxY-61" value="username" style="shape=partialRectangle;html=1;whiteSpace=wrap;connectable=0;strokeColor=inherit;overflow=hidden;fillColor=none;top=0;left=0;bottom=0;right=0;pointerEvents=1;fontSize=16;" parent="Wxz_BfyEDIiqr-9rNyxY-58" vertex="1"><mxGeometry x="273" width="136" height="46" as="geometry"><mxRectangle width="136" height="46" as="alternateBounds"/></mxGeometry></mxCell><mxCell id="Wxz_BfyEDIiqr-9rNyxY-71" value="username" style="shape=partialRectangle;html=1;whiteSpace=wrap;connectable=0;strokeColor=inherit;overflow=hidden;fillColor=none;top=0;left=0;bottom=0;right=0;pointerEvents=1;fontSize=16;" parent="Wxz_BfyEDIiqr-9rNyxY-58" vertex="1"><mxGeometry x="409" width="136" height="46" as="geometry"><mxRectangle width="136" height="46" as="alternateBounds"/></mxGeometry></mxCell><mxCell id="Wxz_BfyEDIiqr-9rNyxY-62" value="" style="shape=tableRow;horizontal=0;startSize=0;swimlaneHead=0;swimlaneBody=0;strokeColor=inherit;top=0;left=0;bottom=0;right=0;collapsible=0;dropTarget=0;fillColor=none;points=[[0,0.5],[1,0.5]];portConstraint=eastwest;fontSize=16;" parent="Wxz_BfyEDIiqr-9rNyxY-53" vertex="1"><mxGeometry y="123" width="545" height="47" as="geometry"/></mxCell><mxCell id="Wxz_BfyEDIiqr-9rNyxY-63" value="String password" style="shape=partialRectangle;html=1;whiteSpace=wrap;connectable=0;strokeColor=inherit;overflow=hidden;fillColor=none;top=0;left=0;bottom=0;right=0;pointerEvents=1;fontSize=16;" parent="Wxz_BfyEDIiqr-9rNyxY-62" vertex="1"><mxGeometry width="136" height="47" as="geometry"><mxRectangle width="136" height="47" as="alternateBounds"/></mxGeometry></mxCell><mxCell id="Wxz_BfyEDIiqr-9rNyxY-64" value="password" style="shape=partialRectangle;html=1;whiteSpace=wrap;connectable=0;strokeColor=inherit;overflow=hidden;fillColor=none;top=0;left=0;bottom=0;right=0;pointerEvents=1;fontSize=16;" parent="Wxz_BfyEDIiqr-9rNyxY-62" vertex="1"><mxGeometry x="136" width="137" height="47" as="geometry"><mxRectangle width="137" height="47" as="alternateBounds"/></mxGeometry></mxCell><mxCell id="Wxz_BfyEDIiqr-9rNyxY-65" value="password" style="shape=partialRectangle;html=1;whiteSpace=wrap;connectable=0;strokeColor=inherit;overflow=hidden;fillColor=none;top=0;left=0;bottom=0;right=0;pointerEvents=1;fontSize=16;" parent="Wxz_BfyEDIiqr-9rNyxY-62" vertex="1"><mxGeometry x="273" width="136" height="47" as="geometry"><mxRectangle width="136" height="47" as="alternateBounds"/></mxGeometry></mxCell><mxCell id="Wxz_BfyEDIiqr-9rNyxY-72" value="password" style="shape=partialRectangle;html=1;whiteSpace=wrap;connectable=0;strokeColor=inherit;overflow=hidden;fillColor=none;top=0;left=0;bottom=0;right=0;pointerEvents=1;fontSize=16;" parent="Wxz_BfyEDIiqr-9rNyxY-62" vertex="1"><mxGeometry x="409" width="136" height="47" as="geometry"><mxRectangle width="136" height="47" as="alternateBounds"/></mxGeometry></mxCell><mxCell id="Wxz_BfyEDIiqr-9rNyxY-74" value="Queries" style="text;html=1;align=left;verticalAlign=middle;resizable=0;points=[];autosize=1;strokeColor=none;fillColor=none;fontSize=21;" parent="1" vertex="1"><mxGeometry x="1080" y="395" width="100" height="40" as="geometry"/></mxCell><mxCell id="Wxz_BfyEDIiqr-9rNyxY-76" value="&lt;ul&gt;&lt;li&gt;아이디 및 패스워드 일치 확인&lt;/li&gt;&lt;ul&gt;&lt;li&gt;username을 통한 User 레코드 쿼리&lt;/li&gt;&lt;/ul&gt;&lt;/ul&gt;" style="text;html=1;strokeColor=none;fillColor=none;align=left;verticalAlign=middle;whiteSpace=wrap;rounded=0;fontSize=15;spacingTop=0;spacing=7;" parent="1" vertex="1"><mxGeometry x="1070" y="460" width="530" height="30" as="geometry"/></mxCell><mxCell id="Wxz_BfyEDIiqr-9rNyxY-77" value="Logics" style="text;html=1;align=left;verticalAlign=middle;resizable=0;points=[];autosize=1;strokeColor=none;fillColor=none;fontSize=21;" parent="1" vertex="1"><mxGeometry x="1080" y="617.5" width="80" height="40" as="geometry"/></mxCell><mxCell id="Wxz_BfyEDIiqr-9rNyxY-78" value="&lt;ul&gt;&lt;li&gt;로그인 성공시&amp;nbsp;&lt;/li&gt;&lt;ul&gt;&lt;li&gt;세션에 유저 정보(UserInfoDto) 저장&lt;/li&gt;&lt;li&gt;메인페이지로 이동&lt;/li&gt;&lt;/ul&gt;&lt;li&gt;로그인 실패&lt;/li&gt;&lt;ul&gt;&lt;li&gt;username을 통한 쿼리 결과 == null =&amp;gt;&amp;nbsp; NotFoundUserException&lt;/li&gt;&lt;li&gt;password 불일치 =&amp;gt; IncorrectPasswordException&lt;/li&gt;&lt;li&gt;페이지 이동 x&lt;/li&gt;&lt;/ul&gt;&lt;/ul&gt;" style="text;html=1;strokeColor=none;fillColor=none;align=left;verticalAlign=middle;whiteSpace=wrap;rounded=0;fontSize=15;spacingTop=0;spacing=7;" parent="1" vertex="1"><mxGeometry x="1070" y="682.5" width="530" height="217.5" as="geometry"/></mxCell></root></mxGraphModel></diagram><diagram name="회원가입 페이지" id="esKSxVU1elcJiOT8YqNV"><mxGraphModel dx="1681" dy="524" grid="1" gridSize="10" guides="1" tooltips="1" connect="1" arrows="1" fold="1" page="1" pageScale="1" pageWidth="827" pageHeight="1169" math="0" shadow="0"><root><mxCell id="2vmJbiU1WiyQqRJiS45X-0"/><mxCell id="2vmJbiU1WiyQqRJiS45X-1" parent="2vmJbiU1WiyQqRJiS45X-0"/><mxCell id="2vmJbiU1WiyQqRJiS45X-2" value="회원가입 페이지" style="text;html=1;align=center;verticalAlign=middle;resizable=0;points=[];autosize=1;strokeColor=none;fillColor=none;fontSize=16;" parent="2vmJbiU1WiyQqRJiS45X-1" vertex="1"><mxGeometry x="340" y="30" width="140" height="30" as="geometry"/></mxCell><mxCell id="2vmJbiU1WiyQqRJiS45X-3" value="" style="rounded=0;whiteSpace=wrap;html=1;fontSize=16;" parent="2vmJbiU1WiyQqRJiS45X-1" vertex="1"><mxGeometry x="-120" y="130" width="1080" height="780" as="geometry"/></mxCell><mxCell id="2vmJbiU1WiyQqRJiS45X-4" value="header" style="rounded=1;whiteSpace=wrap;html=1;fontSize=16;" parent="2vmJbiU1WiyQqRJiS45X-1" vertex="1"><mxGeometry x="-110" y="150" width="1050" height="90" as="geometry"/></mxCell><mxCell id="2vmJbiU1WiyQqRJiS45X-5" value="footer" style="rounded=1;whiteSpace=wrap;html=1;fontSize=16;" parent="2vmJbiU1WiyQqRJiS45X-1" vertex="1"><mxGeometry x="-110" y="760" width="1050" height="140" as="geometry"/></mxCell><mxCell id="2vmJbiU1WiyQqRJiS45X-6" value="" style="rounded=1;whiteSpace=wrap;html=1;fontSize=16;" parent="2vmJbiU1WiyQqRJiS45X-1" vertex="1"><mxGeometry x="-110" y="250" width="1040" height="500" as="geometry"/></mxCell><mxCell id="2vmJbiU1WiyQqRJiS45X-7" value="" style="rounded=0;whiteSpace=wrap;html=1;fontSize=16;" parent="2vmJbiU1WiyQqRJiS45X-1" vertex="1"><mxGeometry x="140" y="260" width="560" height="480" as="geometry"/></mxCell><mxCell id="2vmJbiU1WiyQqRJiS45X-8" value="username" style="shape=document;whiteSpace=wrap;html=1;boundedLbl=1;fontSize=16;size=0.25;" parent="2vmJbiU1WiyQqRJiS45X-1" vertex="1"><mxGeometry x="190" y="290" width="460" height="50" as="geometry"/></mxCell><mxCell id="2vmJbiU1WiyQqRJiS45X-9" style="edgeStyle=orthogonalEdgeStyle;rounded=0;orthogonalLoop=1;jettySize=auto;html=1;fontSize=16;" parent="2vmJbiU1WiyQqRJiS45X-1" source="2vmJbiU1WiyQqRJiS45X-10" edge="1"><mxGeometry relative="1" as="geometry"><mxPoint x="-610" y="310" as="targetPoint"/></mxGeometry></mxCell><mxCell id="2vmJbiU1WiyQqRJiS45X-10" value="" style="shape=document;whiteSpace=wrap;html=1;boundedLbl=1;fontSize=16;" parent="2vmJbiU1WiyQqRJiS45X-1" vertex="1"><mxGeometry x="-780" y="270" width="120" height="80" as="geometry"/></mxCell><mxCell id="2vmJbiU1WiyQqRJiS45X-11" value="input" style="text;html=1;align=center;verticalAlign=middle;resizable=0;points=[];autosize=1;strokeColor=none;fillColor=none;fontSize=16;" parent="2vmJbiU1WiyQqRJiS45X-1" vertex="1"><mxGeometry x="-590" y="295" width="60" height="30" as="geometry"/></mxCell><mxCell id="2vmJbiU1WiyQqRJiS45X-12" style="edgeStyle=orthogonalEdgeStyle;rounded=0;orthogonalLoop=1;jettySize=auto;html=1;exitX=1;exitY=0.5;exitDx=0;exitDy=0;fontSize=16;" parent="2vmJbiU1WiyQqRJiS45X-1" source="2vmJbiU1WiyQqRJiS45X-13" edge="1"><mxGeometry relative="1" as="geometry"><mxPoint x="-610" y="420" as="targetPoint"/></mxGeometry></mxCell><mxCell id="2vmJbiU1WiyQqRJiS45X-13" value="" style="shape=hexagon;perimeter=hexagonPerimeter2;whiteSpace=wrap;html=1;fixedSize=1;fontSize=16;" parent="2vmJbiU1WiyQqRJiS45X-1" vertex="1"><mxGeometry x="-790" y="380" width="130" height="80" as="geometry"/></mxCell><mxCell id="2vmJbiU1WiyQqRJiS45X-14" value="button" style="text;html=1;align=center;verticalAlign=middle;resizable=0;points=[];autosize=1;strokeColor=none;fillColor=none;fontSize=16;" parent="2vmJbiU1WiyQqRJiS45X-1" vertex="1"><mxGeometry x="-595" y="405" width="70" height="30" as="geometry"/></mxCell><mxCell id="2vmJbiU1WiyQqRJiS45X-17" value="가입 버튼" style="shape=hexagon;perimeter=hexagonPerimeter2;whiteSpace=wrap;html=1;fixedSize=1;fontSize=16;" parent="2vmJbiU1WiyQqRJiS45X-1" vertex="1"><mxGeometry x="190" y="682.5" width="460" height="50" as="geometry"/></mxCell><mxCell id="2vmJbiU1WiyQqRJiS45X-18" value="Register Form(RegisterUserDto)" style="shape=table;startSize=30;container=1;collapsible=0;childLayout=tableLayout;fontSize=16;" parent="2vmJbiU1WiyQqRJiS45X-1" vertex="1"><mxGeometry x="1060" y="140" width="545" height="264" as="geometry"/></mxCell><mxCell id="2vmJbiU1WiyQqRJiS45X-19" value="" style="shape=tableRow;horizontal=0;startSize=0;swimlaneHead=0;swimlaneBody=0;strokeColor=inherit;top=0;left=0;bottom=0;right=0;collapsible=0;dropTarget=0;fillColor=none;points=[[0,0.5],[1,0.5]];portConstraint=eastwest;fontSize=16;" parent="2vmJbiU1WiyQqRJiS45X-18" vertex="1"><mxGeometry y="30" width="545" height="47" as="geometry"/></mxCell><mxCell id="2vmJbiU1WiyQqRJiS45X-20" value="property" style="shape=partialRectangle;html=1;whiteSpace=wrap;connectable=0;strokeColor=inherit;overflow=hidden;fillColor=none;top=0;left=0;bottom=0;right=0;pointerEvents=1;fontSize=16;" parent="2vmJbiU1WiyQqRJiS45X-19" vertex="1"><mxGeometry width="136" height="47" as="geometry"><mxRectangle width="136" height="47" as="alternateBounds"/></mxGeometry></mxCell><mxCell id="2vmJbiU1WiyQqRJiS45X-21" value="type" style="shape=partialRectangle;html=1;whiteSpace=wrap;connectable=0;strokeColor=inherit;overflow=hidden;fillColor=none;top=0;left=0;bottom=0;right=0;pointerEvents=1;fontSize=16;" parent="2vmJbiU1WiyQqRJiS45X-19" vertex="1"><mxGeometry x="136" width="137" height="47" as="geometry"><mxRectangle width="137" height="47" as="alternateBounds"/></mxGeometry></mxCell><mxCell id="2vmJbiU1WiyQqRJiS45X-22" value="id" style="shape=partialRectangle;html=1;whiteSpace=wrap;connectable=0;strokeColor=inherit;overflow=hidden;fillColor=none;top=0;left=0;bottom=0;right=0;pointerEvents=1;fontSize=16;" parent="2vmJbiU1WiyQqRJiS45X-19" vertex="1"><mxGeometry x="273" width="136" height="47" as="geometry"><mxRectangle width="136" height="47" as="alternateBounds"/></mxGeometry></mxCell><mxCell id="2vmJbiU1WiyQqRJiS45X-23" value="name" style="shape=partialRectangle;html=1;whiteSpace=wrap;connectable=0;strokeColor=inherit;overflow=hidden;fillColor=none;top=0;left=0;bottom=0;right=0;pointerEvents=1;fontSize=16;" parent="2vmJbiU1WiyQqRJiS45X-19" vertex="1"><mxGeometry x="409" width="136" height="47" as="geometry"><mxRectangle width="136" height="47" as="alternateBounds"/></mxGeometry></mxCell><mxCell id="2vmJbiU1WiyQqRJiS45X-24" value="" style="shape=tableRow;horizontal=0;startSize=0;swimlaneHead=0;swimlaneBody=0;strokeColor=inherit;top=0;left=0;bottom=0;right=0;collapsible=0;dropTarget=0;fillColor=none;points=[[0,0.5],[1,0.5]];portConstraint=eastwest;fontSize=16;" parent="2vmJbiU1WiyQqRJiS45X-18" vertex="1"><mxGeometry y="77" width="545" height="46" as="geometry"/></mxCell><mxCell id="2vmJbiU1WiyQqRJiS45X-25" value="String username" style="shape=partialRectangle;html=1;whiteSpace=wrap;connectable=0;strokeColor=inherit;overflow=hidden;fillColor=none;top=0;left=0;bottom=0;right=0;pointerEvents=1;fontSize=16;" parent="2vmJbiU1WiyQqRJiS45X-24" vertex="1"><mxGeometry width="136" height="46" as="geometry"><mxRectangle width="136" height="46" as="alternateBounds"/></mxGeometry></mxCell><mxCell id="2vmJbiU1WiyQqRJiS45X-26" value="text" style="shape=partialRectangle;html=1;whiteSpace=wrap;connectable=0;strokeColor=inherit;overflow=hidden;fillColor=none;top=0;left=0;bottom=0;right=0;pointerEvents=1;fontSize=16;" parent="2vmJbiU1WiyQqRJiS45X-24" vertex="1"><mxGeometry x="136" width="137" height="46" as="geometry"><mxRectangle width="137" height="46" as="alternateBounds"/></mxGeometry></mxCell><mxCell id="2vmJbiU1WiyQqRJiS45X-27" value="username" style="shape=partialRectangle;html=1;whiteSpace=wrap;connectable=0;strokeColor=inherit;overflow=hidden;fillColor=none;top=0;left=0;bottom=0;right=0;pointerEvents=1;fontSize=16;" parent="2vmJbiU1WiyQqRJiS45X-24" vertex="1"><mxGeometry x="273" width="136" height="46" as="geometry"><mxRectangle width="136" height="46" as="alternateBounds"/></mxGeometry></mxCell><mxCell id="2vmJbiU1WiyQqRJiS45X-28" value="username" style="shape=partialRectangle;html=1;whiteSpace=wrap;connectable=0;strokeColor=inherit;overflow=hidden;fillColor=none;top=0;left=0;bottom=0;right=0;pointerEvents=1;fontSize=16;" parent="2vmJbiU1WiyQqRJiS45X-24" vertex="1"><mxGeometry x="409" width="136" height="46" as="geometry"><mxRectangle width="136" height="46" as="alternateBounds"/></mxGeometry></mxCell><mxCell id="2vmJbiU1WiyQqRJiS45X-29" value="" style="shape=tableRow;horizontal=0;startSize=0;swimlaneHead=0;swimlaneBody=0;strokeColor=inherit;top=0;left=0;bottom=0;right=0;collapsible=0;dropTarget=0;fillColor=none;points=[[0,0.5],[1,0.5]];portConstraint=eastwest;fontSize=16;" parent="2vmJbiU1WiyQqRJiS45X-18" vertex="1"><mxGeometry y="123" width="545" height="47" as="geometry"/></mxCell><mxCell id="2vmJbiU1WiyQqRJiS45X-30" value="String password" style="shape=partialRectangle;html=1;whiteSpace=wrap;connectable=0;strokeColor=inherit;overflow=hidden;fillColor=none;top=0;left=0;bottom=0;right=0;pointerEvents=1;fontSize=16;" parent="2vmJbiU1WiyQqRJiS45X-29" vertex="1"><mxGeometry width="136" height="47" as="geometry"><mxRectangle width="136" height="47" as="alternateBounds"/></mxGeometry></mxCell><mxCell id="2vmJbiU1WiyQqRJiS45X-31" value="password" style="shape=partialRectangle;html=1;whiteSpace=wrap;connectable=0;strokeColor=inherit;overflow=hidden;fillColor=none;top=0;left=0;bottom=0;right=0;pointerEvents=1;fontSize=16;" parent="2vmJbiU1WiyQqRJiS45X-29" vertex="1"><mxGeometry x="136" width="137" height="47" as="geometry"><mxRectangle width="137" height="47" as="alternateBounds"/></mxGeometry></mxCell><mxCell id="2vmJbiU1WiyQqRJiS45X-32" value="password" style="shape=partialRectangle;html=1;whiteSpace=wrap;connectable=0;strokeColor=inherit;overflow=hidden;fillColor=none;top=0;left=0;bottom=0;right=0;pointerEvents=1;fontSize=16;" parent="2vmJbiU1WiyQqRJiS45X-29" vertex="1"><mxGeometry x="273" width="136" height="47" as="geometry"><mxRectangle width="136" height="47" as="alternateBounds"/></mxGeometry></mxCell><mxCell id="2vmJbiU1WiyQqRJiS45X-33" value="password" style="shape=partialRectangle;html=1;whiteSpace=wrap;connectable=0;strokeColor=inherit;overflow=hidden;fillColor=none;top=0;left=0;bottom=0;right=0;pointerEvents=1;fontSize=16;" parent="2vmJbiU1WiyQqRJiS45X-29" vertex="1"><mxGeometry x="409" width="136" height="47" as="geometry"><mxRectangle width="136" height="47" as="alternateBounds"/></mxGeometry></mxCell><mxCell id="_qKPkDBz-2FR-usxbYHZ-0" value="" style="shape=tableRow;horizontal=0;startSize=0;swimlaneHead=0;swimlaneBody=0;strokeColor=inherit;top=0;left=0;bottom=0;right=0;collapsible=0;dropTarget=0;fillColor=none;points=[[0,0.5],[1,0.5]];portConstraint=eastwest;fontSize=16;" parent="2vmJbiU1WiyQqRJiS45X-18" vertex="1"><mxGeometry y="170" width="545" height="47" as="geometry"/></mxCell><mxCell id="_qKPkDBz-2FR-usxbYHZ-1" value="String name" style="shape=partialRectangle;html=1;whiteSpace=wrap;connectable=0;strokeColor=inherit;overflow=hidden;fillColor=none;top=0;left=0;bottom=0;right=0;pointerEvents=1;fontSize=16;" parent="_qKPkDBz-2FR-usxbYHZ-0" vertex="1"><mxGeometry width="136" height="47" as="geometry"><mxRectangle width="136" height="47" as="alternateBounds"/></mxGeometry></mxCell><mxCell id="_qKPkDBz-2FR-usxbYHZ-2" value="text" style="shape=partialRectangle;html=1;whiteSpace=wrap;connectable=0;strokeColor=inherit;overflow=hidden;fillColor=none;top=0;left=0;bottom=0;right=0;pointerEvents=1;fontSize=16;" parent="_qKPkDBz-2FR-usxbYHZ-0" vertex="1"><mxGeometry x="136" width="137" height="47" as="geometry"><mxRectangle width="137" height="47" as="alternateBounds"/></mxGeometry></mxCell><mxCell id="_qKPkDBz-2FR-usxbYHZ-3" value="name" style="shape=partialRectangle;html=1;whiteSpace=wrap;connectable=0;strokeColor=inherit;overflow=hidden;fillColor=none;top=0;left=0;bottom=0;right=0;pointerEvents=1;fontSize=16;" parent="_qKPkDBz-2FR-usxbYHZ-0" vertex="1"><mxGeometry x="273" width="136" height="47" as="geometry"><mxRectangle width="136" height="47" as="alternateBounds"/></mxGeometry></mxCell><mxCell id="_qKPkDBz-2FR-usxbYHZ-4" value="name" style="shape=partialRectangle;html=1;whiteSpace=wrap;connectable=0;strokeColor=inherit;overflow=hidden;fillColor=none;top=0;left=0;bottom=0;right=0;pointerEvents=1;fontSize=16;" parent="_qKPkDBz-2FR-usxbYHZ-0" vertex="1"><mxGeometry x="409" width="136" height="47" as="geometry"><mxRectangle width="136" height="47" as="alternateBounds"/></mxGeometry></mxCell><mxCell id="_qKPkDBz-2FR-usxbYHZ-5" value="" style="shape=tableRow;horizontal=0;startSize=0;swimlaneHead=0;swimlaneBody=0;strokeColor=inherit;top=0;left=0;bottom=0;right=0;collapsible=0;dropTarget=0;fillColor=none;points=[[0,0.5],[1,0.5]];portConstraint=eastwest;fontSize=16;" parent="2vmJbiU1WiyQqRJiS45X-18" vertex="1"><mxGeometry y="217" width="545" height="47" as="geometry"/></mxCell><mxCell id="_qKPkDBz-2FR-usxbYHZ-6" value="String email" style="shape=partialRectangle;html=1;whiteSpace=wrap;connectable=0;strokeColor=inherit;overflow=hidden;fillColor=none;top=0;left=0;bottom=0;right=0;pointerEvents=1;fontSize=16;" parent="_qKPkDBz-2FR-usxbYHZ-5" vertex="1"><mxGeometry width="136" height="47" as="geometry"><mxRectangle width="136" height="47" as="alternateBounds"/></mxGeometry></mxCell><mxCell id="_qKPkDBz-2FR-usxbYHZ-7" value="email" style="shape=partialRectangle;html=1;whiteSpace=wrap;connectable=0;strokeColor=inherit;overflow=hidden;fillColor=none;top=0;left=0;bottom=0;right=0;pointerEvents=1;fontSize=16;" parent="_qKPkDBz-2FR-usxbYHZ-5" vertex="1"><mxGeometry x="136" width="137" height="47" as="geometry"><mxRectangle width="137" height="47" as="alternateBounds"/></mxGeometry></mxCell><mxCell id="_qKPkDBz-2FR-usxbYHZ-8" value="email" style="shape=partialRectangle;html=1;whiteSpace=wrap;connectable=0;strokeColor=inherit;overflow=hidden;fillColor=none;top=0;left=0;bottom=0;right=0;pointerEvents=1;fontSize=16;" parent="_qKPkDBz-2FR-usxbYHZ-5" vertex="1"><mxGeometry x="273" width="136" height="47" as="geometry"><mxRectangle width="136" height="47" as="alternateBounds"/></mxGeometry></mxCell><mxCell id="_qKPkDBz-2FR-usxbYHZ-9" value="email" style="shape=partialRectangle;html=1;whiteSpace=wrap;connectable=0;strokeColor=inherit;overflow=hidden;fillColor=none;top=0;left=0;bottom=0;right=0;pointerEvents=1;fontSize=16;" parent="_qKPkDBz-2FR-usxbYHZ-5" vertex="1"><mxGeometry x="409" width="136" height="47" as="geometry"><mxRectangle width="136" height="47" as="alternateBounds"/></mxGeometry></mxCell><mxCell id="2vmJbiU1WiyQqRJiS45X-34" value="Queries" style="text;html=1;align=left;verticalAlign=middle;resizable=0;points=[];autosize=1;strokeColor=none;fillColor=none;fontSize=21;" parent="2vmJbiU1WiyQqRJiS45X-1" vertex="1"><mxGeometry x="1080" y="432" width="100" height="40" as="geometry"/></mxCell><mxCell id="2vmJbiU1WiyQqRJiS45X-35" value="&lt;ul&gt;&lt;li&gt;아이디 exist 쿼리&lt;/li&gt;&lt;li&gt;이메일 exist 쿼리&lt;/li&gt;&lt;li&gt;insert user 쿼리&lt;/li&gt;&lt;/ul&gt;" style="text;html=1;strokeColor=none;fillColor=none;align=left;verticalAlign=middle;whiteSpace=wrap;rounded=0;fontSize=15;spacingTop=0;spacing=7;" parent="2vmJbiU1WiyQqRJiS45X-1" vertex="1"><mxGeometry x="1070" y="497" width="530" height="100" as="geometry"/></mxCell><mxCell id="2vmJbiU1WiyQqRJiS45X-36" value="Logics" style="text;html=1;align=left;verticalAlign=middle;resizable=0;points=[];autosize=1;strokeColor=none;fillColor=none;fontSize=21;" parent="2vmJbiU1WiyQqRJiS45X-1" vertex="1"><mxGeometry x="1080" y="617.5" width="80" height="40" as="geometry"/></mxCell><mxCell id="2vmJbiU1WiyQqRJiS45X-37" value="&lt;ul&gt;&lt;li&gt;회원가입 성공시 세션에 유저 정보(UserInfoDto) 저장&lt;/li&gt;&lt;li&gt;로그인 실패&lt;/li&gt;&lt;ul&gt;&lt;li&gt;username을 통한 쿼리 결과 == null =&amp;gt;&amp;nbsp; NotFoundUserException&lt;/li&gt;&lt;li&gt;password 불일치 =&amp;gt; IncorrectPasswordException&lt;/li&gt;&lt;/ul&gt;&lt;/ul&gt;" style="text;html=1;strokeColor=none;fillColor=none;align=left;verticalAlign=middle;whiteSpace=wrap;rounded=0;fontSize=15;spacingTop=0;spacing=7;" parent="2vmJbiU1WiyQqRJiS45X-1" vertex="1"><mxGeometry x="1070" y="682.5" width="530" height="227.5" as="geometry"/></mxCell><mxCell id="m5eZyXaoq_kbr9F0Ihp1-0" value="password" style="shape=document;whiteSpace=wrap;html=1;boundedLbl=1;fontSize=16;size=0.25;" parent="2vmJbiU1WiyQqRJiS45X-1" vertex="1"><mxGeometry x="190" y="388" width="460" height="50" as="geometry"/></mxCell><mxCell id="m5eZyXaoq_kbr9F0Ihp1-1" value="name" style="shape=document;whiteSpace=wrap;html=1;boundedLbl=1;fontSize=16;size=0.25;" parent="2vmJbiU1WiyQqRJiS45X-1" vertex="1"><mxGeometry x="190" y="487" width="460" height="50" as="geometry"/></mxCell><mxCell id="m5eZyXaoq_kbr9F0Ihp1-2" value="email" style="shape=document;whiteSpace=wrap;html=1;boundedLbl=1;fontSize=16;size=0.25;" parent="2vmJbiU1WiyQqRJiS45X-1" vertex="1"><mxGeometry x="190" y="585" width="460" height="50" as="geometry"/></mxCell></root></mxGraphModel></diagram><diagram name="역할 확인 페이지" id="N_NZq4bnd4DXQmmR5_80"><mxGraphModel dx="2535" dy="1048" grid="1" gridSize="10" guides="1" tooltips="1" connect="1" arrows="1" fold="1" page="1" pageScale="1" pageWidth="827" pageHeight="1169" math="0" shadow="0"><root><mxCell id="uBULjZ9LkuXJT9TyiyY8-0"/><mxCell id="uBULjZ9LkuXJT9TyiyY8-1" parent="uBULjZ9LkuXJT9TyiyY8-0"/><mxCell id="uBULjZ9LkuXJT9TyiyY8-2" value="역할 확인 페이지" style="text;html=1;align=center;verticalAlign=middle;resizable=0;points=[];autosize=1;strokeColor=none;fillColor=none;fontSize=16;" parent="uBULjZ9LkuXJT9TyiyY8-1" vertex="1"><mxGeometry x="340" y="30" width="140" height="30" as="geometry"/></mxCell><mxCell id="SVLquEc1nxNYsDZYVz7y-3" style="edgeStyle=orthogonalEdgeStyle;rounded=0;orthogonalLoop=1;jettySize=auto;html=1;entryX=0.5;entryY=0;entryDx=0;entryDy=0;fontSize=15;" parent="uBULjZ9LkuXJT9TyiyY8-1" source="uBULjZ9LkuXJT9TyiyY8-3" target="lOFmHX6Us38OKK29qu1Y-4" edge="1"><mxGeometry relative="1" as="geometry"/></mxCell><mxCell id="uBULjZ9LkuXJT9TyiyY8-3" value="" style="rounded=0;whiteSpace=wrap;html=1;fontSize=16;" parent="uBULjZ9LkuXJT9TyiyY8-1" vertex="1"><mxGeometry x="-120" y="130" width="1080" height="780" as="geometry"/></mxCell><mxCell id="uBULjZ9LkuXJT9TyiyY8-6" value="" style="rounded=1;whiteSpace=wrap;html=1;fontSize=16;" parent="uBULjZ9LkuXJT9TyiyY8-1" vertex="1"><mxGeometry x="-110" y="170" width="1040" height="700" as="geometry"/></mxCell><mxCell id="uBULjZ9LkuXJT9TyiyY8-9" style="edgeStyle=orthogonalEdgeStyle;rounded=0;orthogonalLoop=1;jettySize=auto;html=1;fontSize=16;" parent="uBULjZ9LkuXJT9TyiyY8-1" source="uBULjZ9LkuXJT9TyiyY8-10" edge="1"><mxGeometry relative="1" as="geometry"><mxPoint x="-610" y="310" as="targetPoint"/></mxGeometry></mxCell><mxCell id="uBULjZ9LkuXJT9TyiyY8-10" value="" style="shape=document;whiteSpace=wrap;html=1;boundedLbl=1;fontSize=16;" parent="uBULjZ9LkuXJT9TyiyY8-1" vertex="1"><mxGeometry x="-780" y="270" width="120" height="80" as="geometry"/></mxCell><mxCell id="uBULjZ9LkuXJT9TyiyY8-11" value="input" style="text;html=1;align=center;verticalAlign=middle;resizable=0;points=[];autosize=1;strokeColor=none;fillColor=none;fontSize=16;" parent="uBULjZ9LkuXJT9TyiyY8-1" vertex="1"><mxGeometry x="-590" y="295" width="60" height="30" as="geometry"/></mxCell><mxCell id="uBULjZ9LkuXJT9TyiyY8-12" style="edgeStyle=orthogonalEdgeStyle;rounded=0;orthogonalLoop=1;jettySize=auto;html=1;exitX=1;exitY=0.5;exitDx=0;exitDy=0;fontSize=16;" parent="uBULjZ9LkuXJT9TyiyY8-1" source="uBULjZ9LkuXJT9TyiyY8-13" edge="1"><mxGeometry relative="1" as="geometry"><mxPoint x="-610" y="420" as="targetPoint"/></mxGeometry></mxCell><mxCell id="uBULjZ9LkuXJT9TyiyY8-13" value="" style="shape=hexagon;perimeter=hexagonPerimeter2;whiteSpace=wrap;html=1;fixedSize=1;fontSize=16;" parent="uBULjZ9LkuXJT9TyiyY8-1" vertex="1"><mxGeometry x="-790" y="380" width="130" height="80" as="geometry"/></mxCell><mxCell id="uBULjZ9LkuXJT9TyiyY8-14" value="button" style="text;html=1;align=center;verticalAlign=middle;resizable=0;points=[];autosize=1;strokeColor=none;fillColor=none;fontSize=16;" parent="uBULjZ9LkuXJT9TyiyY8-1" vertex="1"><mxGeometry x="-595" y="405" width="70" height="30" as="geometry"/></mxCell><mxCell id="uBULjZ9LkuXJT9TyiyY8-32" value="Queries" style="text;html=1;align=left;verticalAlign=middle;resizable=0;points=[];autosize=1;strokeColor=none;fillColor=none;fontSize=21;" parent="uBULjZ9LkuXJT9TyiyY8-1" vertex="1"><mxGeometry x="1080" y="395" width="100" height="40" as="geometry"/></mxCell><mxCell id="uBULjZ9LkuXJT9TyiyY8-33" value="&lt;ul&gt;&lt;li&gt;update user.aware_role&amp;nbsp;&lt;/li&gt;&lt;li&gt;select match where archive = false&lt;/li&gt;&lt;/ul&gt;" style="text;html=1;strokeColor=none;fillColor=none;align=left;verticalAlign=middle;whiteSpace=wrap;rounded=0;fontSize=15;spacingTop=0;spacing=7;" parent="uBULjZ9LkuXJT9TyiyY8-1" vertex="1"><mxGeometry x="1070" y="460" width="530" height="30" as="geometry"/></mxCell><mxCell id="uBULjZ9LkuXJT9TyiyY8-34" value="Logics" style="text;html=1;align=left;verticalAlign=middle;resizable=0;points=[];autosize=1;strokeColor=none;fillColor=none;fontSize=21;" parent="uBULjZ9LkuXJT9TyiyY8-1" vertex="1"><mxGeometry x="1080" y="617.5" width="80" height="40" as="geometry"/></mxCell><mxCell id="uBULjZ9LkuXJT9TyiyY8-35" value="&lt;ul&gt;&lt;li&gt;세션에서 유저 정보 객체를 가져온다&lt;/li&gt;&lt;li&gt;역할 확인 버튼 클릭시 user.arare_role == false =&amp;gt; true&lt;/li&gt;&lt;li&gt;역할(없음/reveiver/donoator)를 보여준다&lt;/li&gt;&lt;li&gt;역할확인 쿼리&lt;/li&gt;&lt;/ul&gt;" style="text;html=1;strokeColor=none;fillColor=none;align=left;verticalAlign=middle;whiteSpace=wrap;rounded=0;fontSize=15;spacingTop=0;spacing=7;" parent="uBULjZ9LkuXJT9TyiyY8-1" vertex="1"><mxGeometry x="1070" y="682.5" width="530" height="227.5" as="geometry"/></mxCell><mxCell id="lOFmHX6Us38OKK29qu1Y-4" value="" style="rounded=0;whiteSpace=wrap;html=1;fontSize=16;" parent="uBULjZ9LkuXJT9TyiyY8-1" vertex="1"><mxGeometry x="-120" y="1070" width="1080" height="780" as="geometry"/></mxCell><mxCell id="lOFmHX6Us38OKK29qu1Y-5" value="header" style="rounded=1;whiteSpace=wrap;html=1;fontSize=16;" parent="uBULjZ9LkuXJT9TyiyY8-1" vertex="1"><mxGeometry x="-110" y="1090" width="1050" height="90" as="geometry"/></mxCell><mxCell id="lOFmHX6Us38OKK29qu1Y-6" value="footer" style="rounded=1;whiteSpace=wrap;html=1;fontSize=16;" parent="uBULjZ9LkuXJT9TyiyY8-1" vertex="1"><mxGeometry x="-110" y="1700" width="1050" height="140" as="geometry"/></mxCell><mxCell id="lOFmHX6Us38OKK29qu1Y-7" value="" style="rounded=1;whiteSpace=wrap;html=1;fontSize=16;" parent="uBULjZ9LkuXJT9TyiyY8-1" vertex="1"><mxGeometry x="-110" y="1190" width="1040" height="500" as="geometry"/></mxCell><mxCell id="lOFmHX6Us38OKK29qu1Y-8" value="역할 확인 버튼 클릭 전" style="text;html=1;align=left;verticalAlign=middle;resizable=0;points=[];autosize=1;strokeColor=none;fillColor=none;fontSize=21;" parent="uBULjZ9LkuXJT9TyiyY8-1" vertex="1"><mxGeometry x="-120" y="80" width="240" height="40" as="geometry"/></mxCell><mxCell id="lOFmHX6Us38OKK29qu1Y-10" value="역할 확인" style="shape=hexagon;perimeter=hexagonPerimeter2;whiteSpace=wrap;html=1;fixedSize=1;fontSize=16;" parent="uBULjZ9LkuXJT9TyiyY8-1" vertex="1"><mxGeometry x="280" y="360" width="240" height="80" as="geometry"/></mxCell><mxCell id="SVLquEc1nxNYsDZYVz7y-0" value="역할 확인 버튼 클릭 후" style="text;html=1;align=left;verticalAlign=middle;resizable=0;points=[];autosize=1;strokeColor=none;fillColor=none;fontSize=21;" parent="uBULjZ9LkuXJT9TyiyY8-1" vertex="1"><mxGeometry x="-120" y="1020" width="240" height="40" as="geometry"/></mxCell><mxCell id="SVLquEc1nxNYsDZYVz7y-1" value="홈으로 이동" style="shape=hexagon;perimeter=hexagonPerimeter2;whiteSpace=wrap;html=1;fixedSize=1;fontSize=16;" parent="uBULjZ9LkuXJT9TyiyY8-1" vertex="1"><mxGeometry x="270" y="1550" width="240" height="80" as="geometry"/></mxCell><mxCell id="SVLquEc1nxNYsDZYVz7y-2" value="역할 표시" style="rounded=0;whiteSpace=wrap;html=1;fontSize=15;" parent="uBULjZ9LkuXJT9TyiyY8-1" vertex="1"><mxGeometry x="200" y="1320" width="400" height="150" as="geometry"/></mxCell></root></mxGraphModel></diagram><diagram name="메인페이지" id="o0wL8DalKq6RezCgUtYh"><mxGraphModel dx="1718" dy="749" grid="1" gridSize="10" guides="1" tooltips="1" connect="1" arrows="1" fold="1" page="1" pageScale="1" pageWidth="827" pageHeight="1169" math="0" shadow="0"><root><mxCell id="LyrrJHWJ0PhPthRUS8e_-0"/><mxCell id="LyrrJHWJ0PhPthRUS8e_-1" parent="LyrrJHWJ0PhPthRUS8e_-0"/><mxCell id="LyrrJHWJ0PhPthRUS8e_-2" value="메인 페이지" style="text;html=1;align=center;verticalAlign=middle;resizable=0;points=[];autosize=1;strokeColor=none;fillColor=none;fontSize=16;" parent="LyrrJHWJ0PhPthRUS8e_-1" vertex="1"><mxGeometry x="355" y="30" width="110" height="30" as="geometry"/></mxCell><mxCell id="LyrrJHWJ0PhPthRUS8e_-4" value="" style="rounded=0;whiteSpace=wrap;html=1;fontSize=16;" parent="LyrrJHWJ0PhPthRUS8e_-1" vertex="1"><mxGeometry x="-120" y="130" width="1080" height="780" as="geometry"/></mxCell><mxCell id="LyrrJHWJ0PhPthRUS8e_-6" style="edgeStyle=orthogonalEdgeStyle;rounded=0;orthogonalLoop=1;jettySize=auto;html=1;fontSize=16;" parent="LyrrJHWJ0PhPthRUS8e_-1" source="LyrrJHWJ0PhPthRUS8e_-7" edge="1"><mxGeometry relative="1" as="geometry"><mxPoint x="-610" y="310" as="targetPoint"/></mxGeometry></mxCell><mxCell id="LyrrJHWJ0PhPthRUS8e_-7" value="" style="shape=document;whiteSpace=wrap;html=1;boundedLbl=1;fontSize=16;" parent="LyrrJHWJ0PhPthRUS8e_-1" vertex="1"><mxGeometry x="-780" y="270" width="120" height="80" as="geometry"/></mxCell><mxCell id="LyrrJHWJ0PhPthRUS8e_-8" value="input" style="text;html=1;align=center;verticalAlign=middle;resizable=0;points=[];autosize=1;strokeColor=none;fillColor=none;fontSize=16;" parent="LyrrJHWJ0PhPthRUS8e_-1" vertex="1"><mxGeometry x="-590" y="295" width="60" height="30" as="geometry"/></mxCell><mxCell id="LyrrJHWJ0PhPthRUS8e_-9" style="edgeStyle=orthogonalEdgeStyle;rounded=0;orthogonalLoop=1;jettySize=auto;html=1;exitX=1;exitY=0.5;exitDx=0;exitDy=0;fontSize=16;" parent="LyrrJHWJ0PhPthRUS8e_-1" source="LyrrJHWJ0PhPthRUS8e_-10" edge="1"><mxGeometry relative="1" as="geometry"><mxPoint x="-610" y="420" as="targetPoint"/></mxGeometry></mxCell><mxCell id="LyrrJHWJ0PhPthRUS8e_-10" value="" style="shape=hexagon;perimeter=hexagonPerimeter2;whiteSpace=wrap;html=1;fixedSize=1;fontSize=16;" parent="LyrrJHWJ0PhPthRUS8e_-1" vertex="1"><mxGeometry x="-790" y="380" width="130" height="80" as="geometry"/></mxCell><mxCell id="LyrrJHWJ0PhPthRUS8e_-11" value="button" style="text;html=1;align=center;verticalAlign=middle;resizable=0;points=[];autosize=1;strokeColor=none;fillColor=none;fontSize=16;" parent="LyrrJHWJ0PhPthRUS8e_-1" vertex="1"><mxGeometry x="-595" y="405" width="70" height="30" as="geometry"/></mxCell><mxCell id="LyrrJHWJ0PhPthRUS8e_-12" value="Login Form(LoginDto)" style="shape=table;startSize=30;container=1;collapsible=0;childLayout=tableLayout;fontSize=16;" parent="LyrrJHWJ0PhPthRUS8e_-1" vertex="1"><mxGeometry x="1060" y="140" width="545" height="170" as="geometry"/></mxCell><mxCell id="LyrrJHWJ0PhPthRUS8e_-13" value="" style="shape=tableRow;horizontal=0;startSize=0;swimlaneHead=0;swimlaneBody=0;strokeColor=inherit;top=0;left=0;bottom=0;right=0;collapsible=0;dropTarget=0;fillColor=none;points=[[0,0.5],[1,0.5]];portConstraint=eastwest;fontSize=16;" parent="LyrrJHWJ0PhPthRUS8e_-12" vertex="1"><mxGeometry y="30" width="545" height="47" as="geometry"/></mxCell><mxCell id="LyrrJHWJ0PhPthRUS8e_-14" value="property" style="shape=partialRectangle;html=1;whiteSpace=wrap;connectable=0;strokeColor=inherit;overflow=hidden;fillColor=none;top=0;left=0;bottom=0;right=0;pointerEvents=1;fontSize=16;" parent="LyrrJHWJ0PhPthRUS8e_-13" vertex="1"><mxGeometry width="136" height="47" as="geometry"><mxRectangle width="136" height="47" as="alternateBounds"/></mxGeometry></mxCell><mxCell id="LyrrJHWJ0PhPthRUS8e_-15" value="type" style="shape=partialRectangle;html=1;whiteSpace=wrap;connectable=0;strokeColor=inherit;overflow=hidden;fillColor=none;top=0;left=0;bottom=0;right=0;pointerEvents=1;fontSize=16;" parent="LyrrJHWJ0PhPthRUS8e_-13" vertex="1"><mxGeometry x="136" width="137" height="47" as="geometry"><mxRectangle width="137" height="47" as="alternateBounds"/></mxGeometry></mxCell><mxCell id="LyrrJHWJ0PhPthRUS8e_-16" value="id" style="shape=partialRectangle;html=1;whiteSpace=wrap;connectable=0;strokeColor=inherit;overflow=hidden;fillColor=none;top=0;left=0;bottom=0;right=0;pointerEvents=1;fontSize=16;" parent="LyrrJHWJ0PhPthRUS8e_-13" vertex="1"><mxGeometry x="273" width="136" height="47" as="geometry"><mxRectangle width="136" height="47" as="alternateBounds"/></mxGeometry></mxCell><mxCell id="LyrrJHWJ0PhPthRUS8e_-17" value="name" style="shape=partialRectangle;html=1;whiteSpace=wrap;connectable=0;strokeColor=inherit;overflow=hidden;fillColor=none;top=0;left=0;bottom=0;right=0;pointerEvents=1;fontSize=16;" parent="LyrrJHWJ0PhPthRUS8e_-13" vertex="1"><mxGeometry x="409" width="136" height="47" as="geometry"><mxRectangle width="136" height="47" as="alternateBounds"/></mxGeometry></mxCell><mxCell id="LyrrJHWJ0PhPthRUS8e_-18" value="" style="shape=tableRow;horizontal=0;startSize=0;swimlaneHead=0;swimlaneBody=0;strokeColor=inherit;top=0;left=0;bottom=0;right=0;collapsible=0;dropTarget=0;fillColor=none;points=[[0,0.5],[1,0.5]];portConstraint=eastwest;fontSize=16;" parent="LyrrJHWJ0PhPthRUS8e_-12" vertex="1"><mxGeometry y="77" width="545" height="46" as="geometry"/></mxCell><mxCell id="LyrrJHWJ0PhPthRUS8e_-19" value="String username" style="shape=partialRectangle;html=1;whiteSpace=wrap;connectable=0;strokeColor=inherit;overflow=hidden;fillColor=none;top=0;left=0;bottom=0;right=0;pointerEvents=1;fontSize=16;" parent="LyrrJHWJ0PhPthRUS8e_-18" vertex="1"><mxGeometry width="136" height="46" as="geometry"><mxRectangle width="136" height="46" as="alternateBounds"/></mxGeometry></mxCell><mxCell id="LyrrJHWJ0PhPthRUS8e_-20" value="text" style="shape=partialRectangle;html=1;whiteSpace=wrap;connectable=0;strokeColor=inherit;overflow=hidden;fillColor=none;top=0;left=0;bottom=0;right=0;pointerEvents=1;fontSize=16;" parent="LyrrJHWJ0PhPthRUS8e_-18" vertex="1"><mxGeometry x="136" width="137" height="46" as="geometry"><mxRectangle width="137" height="46" as="alternateBounds"/></mxGeometry></mxCell><mxCell id="LyrrJHWJ0PhPthRUS8e_-21" value="username" style="shape=partialRectangle;html=1;whiteSpace=wrap;connectable=0;strokeColor=inherit;overflow=hidden;fillColor=none;top=0;left=0;bottom=0;right=0;pointerEvents=1;fontSize=16;" parent="LyrrJHWJ0PhPthRUS8e_-18" vertex="1"><mxGeometry x="273" width="136" height="46" as="geometry"><mxRectangle width="136" height="46" as="alternateBounds"/></mxGeometry></mxCell><mxCell id="LyrrJHWJ0PhPthRUS8e_-22" value="username" style="shape=partialRectangle;html=1;whiteSpace=wrap;connectable=0;strokeColor=inherit;overflow=hidden;fillColor=none;top=0;left=0;bottom=0;right=0;pointerEvents=1;fontSize=16;" parent="LyrrJHWJ0PhPthRUS8e_-18" vertex="1"><mxGeometry x="409" width="136" height="46" as="geometry"><mxRectangle width="136" height="46" as="alternateBounds"/></mxGeometry></mxCell><mxCell id="LyrrJHWJ0PhPthRUS8e_-23" value="" style="shape=tableRow;horizontal=0;startSize=0;swimlaneHead=0;swimlaneBody=0;strokeColor=inherit;top=0;left=0;bottom=0;right=0;collapsible=0;dropTarget=0;fillColor=none;points=[[0,0.5],[1,0.5]];portConstraint=eastwest;fontSize=16;" parent="LyrrJHWJ0PhPthRUS8e_-12" vertex="1"><mxGeometry y="123" width="545" height="47" as="geometry"/></mxCell><mxCell id="LyrrJHWJ0PhPthRUS8e_-24" value="String password" style="shape=partialRectangle;html=1;whiteSpace=wrap;connectable=0;strokeColor=inherit;overflow=hidden;fillColor=none;top=0;left=0;bottom=0;right=0;pointerEvents=1;fontSize=16;" parent="LyrrJHWJ0PhPthRUS8e_-23" vertex="1"><mxGeometry width="136" height="47" as="geometry"><mxRectangle width="136" height="47" as="alternateBounds"/></mxGeometry></mxCell><mxCell id="LyrrJHWJ0PhPthRUS8e_-25" value="password" style="shape=partialRectangle;html=1;whiteSpace=wrap;connectable=0;strokeColor=inherit;overflow=hidden;fillColor=none;top=0;left=0;bottom=0;right=0;pointerEvents=1;fontSize=16;" parent="LyrrJHWJ0PhPthRUS8e_-23" vertex="1"><mxGeometry x="136" width="137" height="47" as="geometry"><mxRectangle width="137" height="47" as="alternateBounds"/></mxGeometry></mxCell><mxCell id="LyrrJHWJ0PhPthRUS8e_-26" value="password" style="shape=partialRectangle;html=1;whiteSpace=wrap;connectable=0;strokeColor=inherit;overflow=hidden;fillColor=none;top=0;left=0;bottom=0;right=0;pointerEvents=1;fontSize=16;" parent="LyrrJHWJ0PhPthRUS8e_-23" vertex="1"><mxGeometry x="273" width="136" height="47" as="geometry"><mxRectangle width="136" height="47" as="alternateBounds"/></mxGeometry></mxCell><mxCell id="LyrrJHWJ0PhPthRUS8e_-27" value="username" style="shape=partialRectangle;html=1;whiteSpace=wrap;connectable=0;strokeColor=inherit;overflow=hidden;fillColor=none;top=0;left=0;bottom=0;right=0;pointerEvents=1;fontSize=16;" parent="LyrrJHWJ0PhPthRUS8e_-23" vertex="1"><mxGeometry x="409" width="136" height="47" as="geometry"><mxRectangle width="136" height="47" as="alternateBounds"/></mxGeometry></mxCell><mxCell id="LyrrJHWJ0PhPthRUS8e_-28" value="Queries" style="text;html=1;align=left;verticalAlign=middle;resizable=0;points=[];autosize=1;strokeColor=none;fillColor=none;fontSize=21;" parent="LyrrJHWJ0PhPthRUS8e_-1" vertex="1"><mxGeometry x="1080" y="395" width="100" height="40" as="geometry"/></mxCell><mxCell id="LyrrJHWJ0PhPthRUS8e_-29" value="&lt;ul&gt;&lt;li&gt;update user.aware_role&amp;nbsp;&lt;/li&gt;&lt;/ul&gt;" style="text;html=1;strokeColor=none;fillColor=none;align=left;verticalAlign=middle;whiteSpace=wrap;rounded=0;fontSize=15;spacingTop=0;spacing=7;" parent="LyrrJHWJ0PhPthRUS8e_-1" vertex="1"><mxGeometry x="1070" y="460" width="530" height="30" as="geometry"/></mxCell><mxCell id="LyrrJHWJ0PhPthRUS8e_-30" value="Logics" style="text;html=1;align=left;verticalAlign=middle;resizable=0;points=[];autosize=1;strokeColor=none;fillColor=none;fontSize=21;" parent="LyrrJHWJ0PhPthRUS8e_-1" vertex="1"><mxGeometry x="1080" y="617.5" width="80" height="40" as="geometry"/></mxCell><mxCell id="LyrrJHWJ0PhPthRUS8e_-31" value="&lt;ul&gt;&lt;li&gt;세션에서 유저 정보 객체를 가져온다&lt;/li&gt;&lt;li&gt;역할 확인 버튼 클릭시 user.arare_role == false =&amp;gt; true&lt;/li&gt;&lt;li&gt;역할(없음/reveiver/donoator)를 보여준다&lt;/li&gt;&lt;/ul&gt;" style="text;html=1;strokeColor=none;fillColor=none;align=left;verticalAlign=middle;whiteSpace=wrap;rounded=0;fontSize=15;spacingTop=0;spacing=7;" parent="LyrrJHWJ0PhPthRUS8e_-1" vertex="1"><mxGeometry x="1070" y="682.5" width="530" height="227.5" as="geometry"/></mxCell><mxCell id="LyrrJHWJ0PhPthRUS8e_-32" value="" style="rounded=0;whiteSpace=wrap;html=1;fontSize=16;" parent="LyrrJHWJ0PhPthRUS8e_-1" vertex="1"><mxGeometry x="-120" y="1070" width="1080" height="780" as="geometry"/></mxCell><mxCell id="LyrrJHWJ0PhPthRUS8e_-33" value="header" style="rounded=1;whiteSpace=wrap;html=1;fontSize=16;" parent="LyrrJHWJ0PhPthRUS8e_-1" vertex="1"><mxGeometry x="-110" y="1090" width="1050" height="90" as="geometry"/></mxCell><mxCell id="LyrrJHWJ0PhPthRUS8e_-34" value="footer" style="rounded=1;whiteSpace=wrap;html=1;fontSize=16;" parent="LyrrJHWJ0PhPthRUS8e_-1" vertex="1"><mxGeometry x="-110" y="1700" width="1050" height="140" as="geometry"/></mxCell><mxCell id="LyrrJHWJ0PhPthRUS8e_-35" value="" style="rounded=1;whiteSpace=wrap;html=1;fontSize=16;" parent="LyrrJHWJ0PhPthRUS8e_-1" vertex="1"><mxGeometry x="-110" y="1190" width="1040" height="500" as="geometry"/></mxCell><mxCell id="LyrrJHWJ0PhPthRUS8e_-36" value="Case1 : None Role" style="text;html=1;align=left;verticalAlign=middle;resizable=0;points=[];autosize=1;strokeColor=none;fillColor=none;fontSize=21;" parent="LyrrJHWJ0PhPthRUS8e_-1" vertex="1"><mxGeometry x="-120" y="80" width="200" height="40" as="geometry"/></mxCell><mxCell id="lN8kreTro5orubscoXvI-0" value="Case2 : Donator" style="text;html=1;align=left;verticalAlign=middle;resizable=0;points=[];autosize=1;strokeColor=none;fillColor=none;fontSize=21;" parent="LyrrJHWJ0PhPthRUS8e_-1" vertex="1"><mxGeometry x="-120" y="1020" width="180" height="40" as="geometry"/></mxCell><mxCell id="lN8kreTro5orubscoXvI-1" value="" style="rounded=0;whiteSpace=wrap;html=1;fontSize=16;" parent="LyrrJHWJ0PhPthRUS8e_-1" vertex="1"><mxGeometry x="-120" y="2020" width="1080" height="780" as="geometry"/></mxCell><mxCell id="lN8kreTro5orubscoXvI-2" value="header" style="rounded=1;whiteSpace=wrap;html=1;fontSize=16;" parent="LyrrJHWJ0PhPthRUS8e_-1" vertex="1"><mxGeometry x="-110" y="2040" width="1050" height="90" as="geometry"/></mxCell><mxCell id="lN8kreTro5orubscoXvI-3" value="footer" style="rounded=1;whiteSpace=wrap;html=1;fontSize=16;" parent="LyrrJHWJ0PhPthRUS8e_-1" vertex="1"><mxGeometry x="-110" y="2650" width="1050" height="140" as="geometry"/></mxCell><mxCell id="lN8kreTro5orubscoXvI-4" value="" style="rounded=1;whiteSpace=wrap;html=1;fontSize=16;" parent="LyrrJHWJ0PhPthRUS8e_-1" vertex="1"><mxGeometry x="-110" y="2140" width="1040" height="500" as="geometry"/></mxCell><mxCell id="lN8kreTro5orubscoXvI-7" value="Case2 : Receiver" style="text;html=1;align=left;verticalAlign=middle;resizable=0;points=[];autosize=1;strokeColor=none;fillColor=none;fontSize=21;" parent="LyrrJHWJ0PhPthRUS8e_-1" vertex="1"><mxGeometry x="-120" y="1970" width="180" height="40" as="geometry"/></mxCell><mxCell id="0WCFg1ovnX4LJfalOMgb-0" value="header" style="rounded=1;whiteSpace=wrap;html=1;fontSize=16;" parent="LyrrJHWJ0PhPthRUS8e_-1" vertex="1"><mxGeometry x="-100" y="145" width="1050" height="90" as="geometry"/></mxCell><mxCell id="0WCFg1ovnX4LJfalOMgb-1" value="footer" style="rounded=1;whiteSpace=wrap;html=1;fontSize=16;" parent="LyrrJHWJ0PhPthRUS8e_-1" vertex="1"><mxGeometry x="-100" y="755" width="1050" height="140" as="geometry"/></mxCell><mxCell id="0WCFg1ovnX4LJfalOMgb-2" value="" style="rounded=1;whiteSpace=wrap;html=1;fontSize=16;" parent="LyrrJHWJ0PhPthRUS8e_-1" vertex="1"><mxGeometry x="-100" y="245" width="1040" height="500" as="geometry"/></mxCell><mxCell id="qNt16_a58gWGaKoRUHZ6-6" value="match 1" style="shape=hexagon;perimeter=hexagonPerimeter2;whiteSpace=wrap;html=1;fixedSize=1;fontSize=16;" parent="LyrrJHWJ0PhPthRUS8e_-1" vertex="1"><mxGeometry x="10.5" y="350" width="790" height="80" as="geometry"/></mxCell><mxCell id="qNt16_a58gWGaKoRUHZ6-9" value="match 2" style="shape=hexagon;perimeter=hexagonPerimeter2;whiteSpace=wrap;html=1;fixedSize=1;fontSize=16;" parent="LyrrJHWJ0PhPthRUS8e_-1" vertex="1"><mxGeometry x="10.5" y="460" width="790" height="80" as="geometry"/></mxCell></root></mxGraphModel></diagram><diagram name="매치 페이지" id="Ac8Qy1tTfDv9MxjAlWE7"><mxGraphModel dx="1474" dy="749" grid="1" gridSize="10" guides="1" tooltips="1" connect="1" arrows="1" fold="1" page="1" pageScale="1" pageWidth="827" pageHeight="1169" math="0" shadow="0"><root><mxCell id="V6rIXc-H-8qR00_XVYnO-0"/><mxCell id="V6rIXc-H-8qR00_XVYnO-1" parent="V6rIXc-H-8qR00_XVYnO-0"/><mxCell id="V6rIXc-H-8qR00_XVYnO-2" value="메인 페이지" style="text;html=1;align=center;verticalAlign=middle;resizable=0;points=[];autosize=1;strokeColor=none;fillColor=none;fontSize=16;" parent="V6rIXc-H-8qR00_XVYnO-1" vertex="1"><mxGeometry x="355" y="30" width="110" height="30" as="geometry"/></mxCell><mxCell id="V6rIXc-H-8qR00_XVYnO-3" value="" style="rounded=0;whiteSpace=wrap;html=1;fontSize=16;" parent="V6rIXc-H-8qR00_XVYnO-1" vertex="1"><mxGeometry x="-120" y="130" width="1080" height="780" as="geometry"/></mxCell><mxCell id="V6rIXc-H-8qR00_XVYnO-4" style="edgeStyle=orthogonalEdgeStyle;rounded=0;orthogonalLoop=1;jettySize=auto;html=1;fontSize=16;" parent="V6rIXc-H-8qR00_XVYnO-1" source="V6rIXc-H-8qR00_XVYnO-5" edge="1"><mxGeometry relative="1" as="geometry"><mxPoint x="-610" y="310" as="targetPoint"/></mxGeometry></mxCell><mxCell id="V6rIXc-H-8qR00_XVYnO-5" value="" style="shape=document;whiteSpace=wrap;html=1;boundedLbl=1;fontSize=16;" parent="V6rIXc-H-8qR00_XVYnO-1" vertex="1"><mxGeometry x="-780" y="270" width="120" height="80" as="geometry"/></mxCell><mxCell id="V6rIXc-H-8qR00_XVYnO-6" value="input" style="text;html=1;align=center;verticalAlign=middle;resizable=0;points=[];autosize=1;strokeColor=none;fillColor=none;fontSize=16;" parent="V6rIXc-H-8qR00_XVYnO-1" vertex="1"><mxGeometry x="-590" y="295" width="60" height="30" as="geometry"/></mxCell><mxCell id="V6rIXc-H-8qR00_XVYnO-7" style="edgeStyle=orthogonalEdgeStyle;rounded=0;orthogonalLoop=1;jettySize=auto;html=1;exitX=1;exitY=0.5;exitDx=0;exitDy=0;fontSize=16;" parent="V6rIXc-H-8qR00_XVYnO-1" source="V6rIXc-H-8qR00_XVYnO-8" edge="1"><mxGeometry relative="1" as="geometry"><mxPoint x="-610" y="420" as="targetPoint"/></mxGeometry></mxCell><mxCell id="V6rIXc-H-8qR00_XVYnO-8" value="" style="shape=hexagon;perimeter=hexagonPerimeter2;whiteSpace=wrap;html=1;fixedSize=1;fontSize=16;" parent="V6rIXc-H-8qR00_XVYnO-1" vertex="1"><mxGeometry x="-790" y="380" width="130" height="80" as="geometry"/></mxCell><mxCell id="V6rIXc-H-8qR00_XVYnO-9" value="button" style="text;html=1;align=center;verticalAlign=middle;resizable=0;points=[];autosize=1;strokeColor=none;fillColor=none;fontSize=16;" parent="V6rIXc-H-8qR00_XVYnO-1" vertex="1"><mxGeometry x="-595" y="405" width="70" height="30" as="geometry"/></mxCell><mxCell id="V6rIXc-H-8qR00_XVYnO-26" value="Queries" style="text;html=1;align=left;verticalAlign=middle;resizable=0;points=[];autosize=1;strokeColor=none;fillColor=none;fontSize=21;" parent="V6rIXc-H-8qR00_XVYnO-1" vertex="1"><mxGeometry x="1080" y="395" width="100" height="40" as="geometry"/></mxCell><mxCell id="V6rIXc-H-8qR00_XVYnO-27" value="&lt;ul&gt;&lt;li&gt;실명 가져오기 : match_id, receiver를 통해 UserInfoDto 쿼리&lt;/li&gt;&lt;li&gt;코멘트 가져오기 getAllComment&lt;/li&gt;&lt;li&gt;코멘트 작성 createComment&lt;/li&gt;&lt;/ul&gt;" style="text;html=1;strokeColor=none;fillColor=none;align=left;verticalAlign=middle;whiteSpace=wrap;rounded=0;fontSize=15;spacingTop=0;spacing=7;" parent="V6rIXc-H-8qR00_XVYnO-1" vertex="1"><mxGeometry x="1070" y="460" width="530" height="30" as="geometry"/></mxCell><mxCell id="V6rIXc-H-8qR00_XVYnO-28" value="Logics" style="text;html=1;align=left;verticalAlign=middle;resizable=0;points=[];autosize=1;strokeColor=none;fillColor=none;fontSize=21;" parent="V6rIXc-H-8qR00_XVYnO-1" vertex="1"><mxGeometry x="1080" y="617.5" width="80" height="40" as="geometry"/></mxCell><mxCell id="V6rIXc-H-8qR00_XVYnO-29" value="&lt;ul&gt;&lt;li&gt;세션에서 유저 정보 객체를 가져온다&lt;/li&gt;&lt;li&gt;역할 확인 버튼 클릭시 user.arare_role == false =&amp;gt; true&lt;/li&gt;&lt;li&gt;역할(없음/reveiver/donoator)를 보여준다&lt;/li&gt;&lt;/ul&gt;" style="text;html=1;strokeColor=none;fillColor=none;align=left;verticalAlign=middle;whiteSpace=wrap;rounded=0;fontSize=15;spacingTop=0;spacing=7;" parent="V6rIXc-H-8qR00_XVYnO-1" vertex="1"><mxGeometry x="1070" y="682.5" width="530" height="227.5" as="geometry"/></mxCell><mxCell id="V6rIXc-H-8qR00_XVYnO-30" value="" style="rounded=0;whiteSpace=wrap;html=1;fontSize=16;" parent="V6rIXc-H-8qR00_XVYnO-1" vertex="1"><mxGeometry x="-120" y="1070" width="1080" height="780" as="geometry"/></mxCell><mxCell id="V6rIXc-H-8qR00_XVYnO-31" value="header" style="rounded=1;whiteSpace=wrap;html=1;fontSize=16;" parent="V6rIXc-H-8qR00_XVYnO-1" vertex="1"><mxGeometry x="-110" y="1090" width="1050" height="90" as="geometry"/></mxCell><mxCell id="V6rIXc-H-8qR00_XVYnO-32" value="footer" style="rounded=1;whiteSpace=wrap;html=1;fontSize=16;" parent="V6rIXc-H-8qR00_XVYnO-1" vertex="1"><mxGeometry x="-110" y="1700" width="1050" height="140" as="geometry"/></mxCell><mxCell id="V6rIXc-H-8qR00_XVYnO-33" value="" style="rounded=1;whiteSpace=wrap;html=1;fontSize=16;" parent="V6rIXc-H-8qR00_XVYnO-1" vertex="1"><mxGeometry x="-110" y="1190" width="1040" height="500" as="geometry"/></mxCell><mxCell id="V6rIXc-H-8qR00_XVYnO-34" value="Case1 : None Role" style="text;html=1;align=left;verticalAlign=middle;resizable=0;points=[];autosize=1;strokeColor=none;fillColor=none;fontSize=21;" parent="V6rIXc-H-8qR00_XVYnO-1" vertex="1"><mxGeometry x="-120" y="80" width="200" height="40" as="geometry"/></mxCell><mxCell id="V6rIXc-H-8qR00_XVYnO-35" value="Case2 : Donator" style="text;html=1;align=left;verticalAlign=middle;resizable=0;points=[];autosize=1;strokeColor=none;fillColor=none;fontSize=21;" parent="V6rIXc-H-8qR00_XVYnO-1" vertex="1"><mxGeometry x="-120" y="1020" width="180" height="40" as="geometry"/></mxCell><mxCell id="V6rIXc-H-8qR00_XVYnO-36" value="" style="rounded=0;whiteSpace=wrap;html=1;fontSize=16;" parent="V6rIXc-H-8qR00_XVYnO-1" vertex="1"><mxGeometry x="-120" y="2020" width="1080" height="780" as="geometry"/></mxCell><mxCell id="V6rIXc-H-8qR00_XVYnO-37" value="header" style="rounded=1;whiteSpace=wrap;html=1;fontSize=16;" parent="V6rIXc-H-8qR00_XVYnO-1" vertex="1"><mxGeometry x="-110" y="2040" width="1050" height="90" as="geometry"/></mxCell><mxCell id="V6rIXc-H-8qR00_XVYnO-38" value="footer" style="rounded=1;whiteSpace=wrap;html=1;fontSize=16;" parent="V6rIXc-H-8qR00_XVYnO-1" vertex="1"><mxGeometry x="-110" y="2650" width="1050" height="140" as="geometry"/></mxCell><mxCell id="V6rIXc-H-8qR00_XVYnO-39" value="" style="rounded=1;whiteSpace=wrap;html=1;fontSize=16;" parent="V6rIXc-H-8qR00_XVYnO-1" vertex="1"><mxGeometry x="-110" y="2140" width="1040" height="500" as="geometry"/></mxCell><mxCell id="V6rIXc-H-8qR00_XVYnO-40" value="Case2 : Receiver" style="text;html=1;align=left;verticalAlign=middle;resizable=0;points=[];autosize=1;strokeColor=none;fillColor=none;fontSize=21;" parent="V6rIXc-H-8qR00_XVYnO-1" vertex="1"><mxGeometry x="-120" y="1970" width="180" height="40" as="geometry"/></mxCell><mxCell id="V6rIXc-H-8qR00_XVYnO-41" value="header" style="rounded=1;whiteSpace=wrap;html=1;fontSize=16;" parent="V6rIXc-H-8qR00_XVYnO-1" vertex="1"><mxGeometry x="-100" y="145" width="1050" height="90" as="geometry"/></mxCell><mxCell id="V6rIXc-H-8qR00_XVYnO-42" value="footer" style="rounded=1;whiteSpace=wrap;html=1;fontSize=16;" parent="V6rIXc-H-8qR00_XVYnO-1" vertex="1"><mxGeometry x="-100" y="755" width="1050" height="140" as="geometry"/></mxCell><mxCell id="V6rIXc-H-8qR00_XVYnO-43" value="" style="rounded=1;whiteSpace=wrap;html=1;fontSize=16;strokeColor=none;" parent="V6rIXc-H-8qR00_XVYnO-1" vertex="1"><mxGeometry x="-20" y="405" width="1040" height="500" as="geometry"/></mxCell><mxCell id="P5d7iy_3mCTH27WS1Oo--0" value="코멘트&lt;br&gt;&lt;br&gt;select&amp;nbsp;&lt;br&gt;&lt;br&gt;insert" style="rounded=0;whiteSpace=wrap;html=1;" parent="V6rIXc-H-8qR00_XVYnO-1" vertex="1"><mxGeometry x="60" y="380" width="720" height="335" as="geometry"/></mxCell><mxCell id="P5d7iy_3mCTH27WS1Oo--1" value="코멘트" style="rounded=0;whiteSpace=wrap;html=1;" parent="V6rIXc-H-8qR00_XVYnO-1" vertex="1"><mxGeometry x="50" y="1310" width="720" height="335" as="geometry"/></mxCell><mxCell id="P5d7iy_3mCTH27WS1Oo--2" value="오늘의 마니또 미션 리스트 / 벌칙" style="rounded=0;whiteSpace=wrap;html=1;" parent="V6rIXc-H-8qR00_XVYnO-1" vertex="1"><mxGeometry x="50" y="1230" width="310" height="60" as="geometry"/></mxCell><mxCell id="P5d7iy_3mCTH27WS1Oo--3" value="나의 마니또는 누구?" style="rounded=0;whiteSpace=wrap;html=1;" parent="V6rIXc-H-8qR00_XVYnO-1" vertex="1"><mxGeometry x="460" y="1230" width="310" height="60" as="geometry"/></mxCell><mxCell id="P5d7iy_3mCTH27WS1Oo--4" value="코멘트" style="rounded=0;whiteSpace=wrap;html=1;" parent="V6rIXc-H-8qR00_XVYnO-1" vertex="1"><mxGeometry x="50" y="2242.5" width="720" height="335" as="geometry"/></mxCell><mxCell id="5Oe8pZE73tPve3ALgzRQ-1" style="edgeStyle=orthogonalEdgeStyle;rounded=0;orthogonalLoop=1;jettySize=auto;html=1;" parent="V6rIXc-H-8qR00_XVYnO-1" source="P5d7iy_3mCTH27WS1Oo--5" edge="1"><mxGeometry relative="1" as="geometry"><mxPoint x="1150" y="2190" as="targetPoint"/></mxGeometry></mxCell><mxCell id="P5d7iy_3mCTH27WS1Oo--5" value="마니또 누군지 맞추기" style="rounded=0;whiteSpace=wrap;html=1;" parent="V6rIXc-H-8qR00_XVYnO-1" vertex="1"><mxGeometry x="460" y="2160" width="310" height="60" as="geometry"/></mxCell><mxCell id="P5d7iy_3mCTH27WS1Oo--6" value="벌칙/리워드" style="rounded=0;whiteSpace=wrap;html=1;" parent="V6rIXc-H-8qR00_XVYnO-1" vertex="1"><mxGeometry x="50" y="2160" width="310" height="60" as="geometry"/></mxCell><mxCell id="P5d7iy_3mCTH27WS1Oo--7" value="마니또 실명(from UserInfoDto)" style="rounded=0;whiteSpace=wrap;html=1;" parent="V6rIXc-H-8qR00_XVYnO-1" vertex="1"><mxGeometry x="60" y="290" width="120" height="60" as="geometry"/></mxCell><mxCell id="T5oyMwM9HTQ0ylxDoAnj-0" value="Dto" style="text;html=1;align=left;verticalAlign=middle;resizable=0;points=[];autosize=1;strokeColor=none;fillColor=none;fontSize=21;" parent="V6rIXc-H-8qR00_XVYnO-1" vertex="1"><mxGeometry x="1080" y="140" width="60" height="40" as="geometry"/></mxCell><mxCell id="T5oyMwM9HTQ0ylxDoAnj-1" value="&lt;ul&gt;&lt;li&gt;UserInfoDto&lt;/li&gt;&lt;li&gt;CreateCommentDto&lt;/li&gt;&lt;li&gt;GetAllCommentDto&lt;/li&gt;&lt;/ul&gt;" style="text;html=1;strokeColor=none;fillColor=none;align=left;verticalAlign=middle;whiteSpace=wrap;rounded=0;fontSize=15;spacingTop=0;spacing=7;" parent="V6rIXc-H-8qR00_XVYnO-1" vertex="1"><mxGeometry x="1060" y="205" width="530" height="30" as="geometry"/></mxCell><mxCell id="5Oe8pZE73tPve3ALgzRQ-0" value="미션 테이블 및 페널티 테이블에서 match_id를 통해 select 쿼리" style="text;html=1;align=center;verticalAlign=middle;resizable=0;points=[];autosize=1;strokeColor=none;fillColor=none;" parent="V6rIXc-H-8qR00_XVYnO-1" vertex="1"><mxGeometry x="945" y="1295" width="330" height="30" as="geometry"/></mxCell><mxCell id="5Oe8pZE73tPve3ALgzRQ-2" value="회원 전체 테이블 쿼리 본인제외&lt;br&gt;" style="text;html=1;align=center;verticalAlign=middle;resizable=0;points=[];autosize=1;strokeColor=none;fillColor=none;" parent="V6rIXc-H-8qR00_XVYnO-1" vertex="1"><mxGeometry x="1170" y="2175" width="170" height="30" as="geometry"/></mxCell><mxCell id="ETIwTL1ceViiRW_E-9MI-0" value="박종현 메치페이지 프론트엔드, 스케줄러 쿼리" style="text;html=1;align=center;verticalAlign=middle;resizable=0;points=[];autosize=1;strokeColor=none;fillColor=none;" parent="V6rIXc-H-8qR00_XVYnO-1" vertex="1"><mxGeometry x="800" y="3345" width="240" height="30" as="geometry"/></mxCell></root></mxGraphModel></diagram><diagram id="lBOdPRI-qnpBhD0Ub6Ax" name="admin"><mxGraphModel dx="647" dy="-509" grid="1" gridSize="10" guides="1" tooltips="1" connect="1" arrows="1" fold="1" page="1" pageScale="1" pageWidth="827" pageHeight="1169" math="0" shadow="0"><root><mxCell id="0"/><mxCell id="1" parent="0"/><mxCell id="TvWfn8ZSmzD4vahfZygN-1" value="" style="rounded=0;whiteSpace=wrap;html=1;" parent="1" vertex="1"><mxGeometry x="100" y="1320" width="580" height="380" as="geometry"/></mxCell><mxCell id="TvWfn8ZSmzD4vahfZygN-2" value="벌칙 등록" style="rounded=0;whiteSpace=wrap;html=1;" parent="1" vertex="1"><mxGeometry x="130" y="1360" width="530" height="60" as="geometry"/></mxCell><mxCell id="TvWfn8ZSmzD4vahfZygN-3" value="미션등록" style="rounded=0;whiteSpace=wrap;html=1;" parent="1" vertex="1"><mxGeometry x="130" y="1450" width="530" height="60" as="geometry"/></mxCell><mxCell id="TvWfn8ZSmzD4vahfZygN-4" value="보상등록" style="rounded=0;whiteSpace=wrap;html=1;" parent="1" vertex="1"><mxGeometry x="126" y="1530" width="544" height="60" as="geometry"/></mxCell><mxCell id="TvWfn8ZSmzD4vahfZygN-5" value="전체 유져 조회" style="rounded=0;whiteSpace=wrap;html=1;" parent="1" vertex="1"><mxGeometry x="125" y="1610" width="275" height="60" as="geometry"/></mxCell><mxCell id="TvWfn8ZSmzD4vahfZygN-6" value="현재마니또" style="rounded=0;whiteSpace=wrap;html=1;" parent="1" vertex="1"><mxGeometry x="410" y="1610" width="260" height="60" as="geometry"/></mxCell><mxCell id="TvWfn8ZSmzD4vahfZygN-7" value="MissionInfoDto&lt;br&gt;PenaltyInfoDto&lt;br&gt;RewardInfoDto" style="text;html=1;align=center;verticalAlign=middle;resizable=0;points=[];autosize=1;strokeColor=none;fillColor=none;" parent="1" vertex="1"><mxGeometry x="345" y="1250" width="100" height="60" as="geometry"/></mxCell></root></mxGraphModel></diagram></mxfile>